<?xml version="1.0" encoding="utf-8" standalone="no"?>
<!DOCTYPE svg PUBLIC "-//W3C//DTD SVG 1.1//EN"
  "http://www.w3.org/Graphics/SVG/1.1/DTD/svg11.dtd">
<!-- Created with matplotlib (https://matplotlib.org/) -->
<svg height="314.36825pt" version="1.1" viewBox="0 0 408.423125 314.36825" width="408.423125pt" xmlns="http://www.w3.org/2000/svg" xmlns:xlink="http://www.w3.org/1999/xlink">
 <defs>
  <style type="text/css">
*{stroke-linecap:butt;stroke-linejoin:round;}
  </style>
 </defs>
 <g id="figure_1">
  <g id="patch_1">
   <path d="M 0 314.36825 
L 408.423125 314.36825 
L 408.423125 0 
L 0 0 
z
" style="fill:#ffffff;"/>
  </g>
  <g id="axes_1">
   <g id="patch_2">
    <path d="M 40.603125 276.812 
L 397.723125 276.812 
L 397.723125 10.7 
L 40.603125 10.7 
z
" style="fill:#ffffff;"/>
   </g>
   <g id="matplotlib.axis_1">
    <g id="xtick_1">
     <g id="line2d_1">
      <path clip-path="url(#p7c31e6e983)" d="M 51.544535 276.812 
L 51.544535 10.7 
" style="fill:none;stroke:#808080;stroke-dasharray:0.8,1.32;stroke-dashoffset:0;stroke-width:0.8;"/>
     </g>
     <g id="line2d_2">
      <defs>
       <path d="M 0 0 
L 0 3.5 
" id="m79375d0b24" style="stroke:#000000;stroke-width:0.8;"/>
      </defs>
      <g>
       <use style="stroke:#000000;stroke-width:0.8;" x="51.544535" xlink:href="#m79375d0b24" y="276.812"/>
      </g>
     </g>
     <g id="text_1">
      <!-- 0.2 -->
      <defs>
       <path d="M 31.78125 66.40625 
Q 24.171875 66.40625 20.328125 58.90625 
Q 16.5 51.421875 16.5 36.375 
Q 16.5 21.390625 20.328125 13.890625 
Q 24.171875 6.390625 31.78125 6.390625 
Q 39.453125 6.390625 43.28125 13.890625 
Q 47.125 21.390625 47.125 36.375 
Q 47.125 51.421875 43.28125 58.90625 
Q 39.453125 66.40625 31.78125 66.40625 
z
M 31.78125 74.21875 
Q 44.046875 74.21875 50.515625 64.515625 
Q 56.984375 54.828125 56.984375 36.375 
Q 56.984375 17.96875 50.515625 8.265625 
Q 44.046875 -1.421875 31.78125 -1.421875 
Q 19.53125 -1.421875 13.0625 8.265625 
Q 6.59375 17.96875 6.59375 36.375 
Q 6.59375 54.828125 13.0625 64.515625 
Q 19.53125 74.21875 31.78125 74.21875 
z
" id="DejaVuSans-48"/>
       <path d="M 10.6875 12.40625 
L 21 12.40625 
L 21 0 
L 10.6875 0 
z
" id="DejaVuSans-46"/>
       <path d="M 19.1875 8.296875 
L 53.609375 8.296875 
L 53.609375 0 
L 7.328125 0 
L 7.328125 8.296875 
Q 12.9375 14.109375 22.625 23.890625 
Q 32.328125 33.6875 34.8125 36.53125 
Q 39.546875 41.84375 41.421875 45.53125 
Q 43.3125 49.21875 43.3125 52.78125 
Q 43.3125 58.59375 39.234375 62.25 
Q 35.15625 65.921875 28.609375 65.921875 
Q 23.96875 65.921875 18.8125 64.3125 
Q 13.671875 62.703125 7.8125 59.421875 
L 7.8125 69.390625 
Q 13.765625 71.78125 18.9375 73 
Q 24.125 74.21875 28.421875 74.21875 
Q 39.75 74.21875 46.484375 68.546875 
Q 53.21875 62.890625 53.21875 53.421875 
Q 53.21875 48.921875 51.53125 44.890625 
Q 49.859375 40.875 45.40625 35.40625 
Q 44.1875 33.984375 37.640625 27.21875 
Q 31.109375 20.453125 19.1875 8.296875 
z
" id="DejaVuSans-50"/>
      </defs>
      <g transform="translate(43.592973 291.410438)scale(0.1 -0.1)">
       <use xlink:href="#DejaVuSans-48"/>
       <use x="63.623047" xlink:href="#DejaVuSans-46"/>
       <use x="95.410156" xlink:href="#DejaVuSans-50"/>
      </g>
     </g>
    </g>
    <g id="xtick_2">
     <g id="line2d_3">
      <path clip-path="url(#p7c31e6e983)" d="M 98.589504 276.812 
L 98.589504 10.7 
" style="fill:none;stroke:#808080;stroke-dasharray:0.8,1.32;stroke-dashoffset:0;stroke-width:0.8;"/>
     </g>
     <g id="line2d_4">
      <g>
       <use style="stroke:#000000;stroke-width:0.8;" x="98.589504" xlink:href="#m79375d0b24" y="276.812"/>
      </g>
     </g>
     <g id="text_2">
      <!-- 0.4 -->
      <defs>
       <path d="M 37.796875 64.3125 
L 12.890625 25.390625 
L 37.796875 25.390625 
z
M 35.203125 72.90625 
L 47.609375 72.90625 
L 47.609375 25.390625 
L 58.015625 25.390625 
L 58.015625 17.1875 
L 47.609375 17.1875 
L 47.609375 0 
L 37.796875 0 
L 37.796875 17.1875 
L 4.890625 17.1875 
L 4.890625 26.703125 
z
" id="DejaVuSans-52"/>
      </defs>
      <g transform="translate(90.637942 291.410438)scale(0.1 -0.1)">
       <use xlink:href="#DejaVuSans-48"/>
       <use x="63.623047" xlink:href="#DejaVuSans-46"/>
       <use x="95.410156" xlink:href="#DejaVuSans-52"/>
      </g>
     </g>
    </g>
    <g id="xtick_3">
     <g id="line2d_5">
      <path clip-path="url(#p7c31e6e983)" d="M 145.634473 276.812 
L 145.634473 10.7 
" style="fill:none;stroke:#808080;stroke-dasharray:0.8,1.32;stroke-dashoffset:0;stroke-width:0.8;"/>
     </g>
     <g id="line2d_6">
      <g>
       <use style="stroke:#000000;stroke-width:0.8;" x="145.634473" xlink:href="#m79375d0b24" y="276.812"/>
      </g>
     </g>
     <g id="text_3">
      <!-- 0.6 -->
      <defs>
       <path d="M 33.015625 40.375 
Q 26.375 40.375 22.484375 35.828125 
Q 18.609375 31.296875 18.609375 23.390625 
Q 18.609375 15.53125 22.484375 10.953125 
Q 26.375 6.390625 33.015625 6.390625 
Q 39.65625 6.390625 43.53125 10.953125 
Q 47.40625 15.53125 47.40625 23.390625 
Q 47.40625 31.296875 43.53125 35.828125 
Q 39.65625 40.375 33.015625 40.375 
z
M 52.59375 71.296875 
L 52.59375 62.3125 
Q 48.875 64.0625 45.09375 64.984375 
Q 41.3125 65.921875 37.59375 65.921875 
Q 27.828125 65.921875 22.671875 59.328125 
Q 17.53125 52.734375 16.796875 39.40625 
Q 19.671875 43.65625 24.015625 45.921875 
Q 28.375 48.1875 33.59375 48.1875 
Q 44.578125 48.1875 50.953125 41.515625 
Q 57.328125 34.859375 57.328125 23.390625 
Q 57.328125 12.15625 50.6875 5.359375 
Q 44.046875 -1.421875 33.015625 -1.421875 
Q 20.359375 -1.421875 13.671875 8.265625 
Q 6.984375 17.96875 6.984375 36.375 
Q 6.984375 53.65625 15.1875 63.9375 
Q 23.390625 74.21875 37.203125 74.21875 
Q 40.921875 74.21875 44.703125 73.484375 
Q 48.484375 72.75 52.59375 71.296875 
z
" id="DejaVuSans-54"/>
      </defs>
      <g transform="translate(137.682911 291.410438)scale(0.1 -0.1)">
       <use xlink:href="#DejaVuSans-48"/>
       <use x="63.623047" xlink:href="#DejaVuSans-46"/>
       <use x="95.410156" xlink:href="#DejaVuSans-54"/>
      </g>
     </g>
    </g>
    <g id="xtick_4">
     <g id="line2d_7">
      <path clip-path="url(#p7c31e6e983)" d="M 192.679442 276.812 
L 192.679442 10.7 
" style="fill:none;stroke:#808080;stroke-dasharray:0.8,1.32;stroke-dashoffset:0;stroke-width:0.8;"/>
     </g>
     <g id="line2d_8">
      <g>
       <use style="stroke:#000000;stroke-width:0.8;" x="192.679442" xlink:href="#m79375d0b24" y="276.812"/>
      </g>
     </g>
     <g id="text_4">
      <!-- 0.8 -->
      <defs>
       <path d="M 31.78125 34.625 
Q 24.75 34.625 20.71875 30.859375 
Q 16.703125 27.09375 16.703125 20.515625 
Q 16.703125 13.921875 20.71875 10.15625 
Q 24.75 6.390625 31.78125 6.390625 
Q 38.8125 6.390625 42.859375 10.171875 
Q 46.921875 13.96875 46.921875 20.515625 
Q 46.921875 27.09375 42.890625 30.859375 
Q 38.875 34.625 31.78125 34.625 
z
M 21.921875 38.8125 
Q 15.578125 40.375 12.03125 44.71875 
Q 8.5 49.078125 8.5 55.328125 
Q 8.5 64.0625 14.71875 69.140625 
Q 20.953125 74.21875 31.78125 74.21875 
Q 42.671875 74.21875 48.875 69.140625 
Q 55.078125 64.0625 55.078125 55.328125 
Q 55.078125 49.078125 51.53125 44.71875 
Q 48 40.375 41.703125 38.8125 
Q 48.828125 37.15625 52.796875 32.3125 
Q 56.78125 27.484375 56.78125 20.515625 
Q 56.78125 9.90625 50.3125 4.234375 
Q 43.84375 -1.421875 31.78125 -1.421875 
Q 19.734375 -1.421875 13.25 4.234375 
Q 6.78125 9.90625 6.78125 20.515625 
Q 6.78125 27.484375 10.78125 32.3125 
Q 14.796875 37.15625 21.921875 38.8125 
z
M 18.3125 54.390625 
Q 18.3125 48.734375 21.84375 45.5625 
Q 25.390625 42.390625 31.78125 42.390625 
Q 38.140625 42.390625 41.71875 45.5625 
Q 45.3125 48.734375 45.3125 54.390625 
Q 45.3125 60.0625 41.71875 63.234375 
Q 38.140625 66.40625 31.78125 66.40625 
Q 25.390625 66.40625 21.84375 63.234375 
Q 18.3125 60.0625 18.3125 54.390625 
z
" id="DejaVuSans-56"/>
      </defs>
      <g transform="translate(184.72788 291.410438)scale(0.1 -0.1)">
       <use xlink:href="#DejaVuSans-48"/>
       <use x="63.623047" xlink:href="#DejaVuSans-46"/>
       <use x="95.410156" xlink:href="#DejaVuSans-56"/>
      </g>
     </g>
    </g>
    <g id="xtick_5">
     <g id="line2d_9">
      <path clip-path="url(#p7c31e6e983)" d="M 239.724411 276.812 
L 239.724411 10.7 
" style="fill:none;stroke:#808080;stroke-dasharray:0.8,1.32;stroke-dashoffset:0;stroke-width:0.8;"/>
     </g>
     <g id="line2d_10">
      <g>
       <use style="stroke:#000000;stroke-width:0.8;" x="239.724411" xlink:href="#m79375d0b24" y="276.812"/>
      </g>
     </g>
     <g id="text_5">
      <!-- 1.0 -->
      <defs>
       <path d="M 12.40625 8.296875 
L 28.515625 8.296875 
L 28.515625 63.921875 
L 10.984375 60.40625 
L 10.984375 69.390625 
L 28.421875 72.90625 
L 38.28125 72.90625 
L 38.28125 8.296875 
L 54.390625 8.296875 
L 54.390625 0 
L 12.40625 0 
z
" id="DejaVuSans-49"/>
      </defs>
      <g transform="translate(231.772848 291.410438)scale(0.1 -0.1)">
       <use xlink:href="#DejaVuSans-49"/>
       <use x="63.623047" xlink:href="#DejaVuSans-46"/>
       <use x="95.410156" xlink:href="#DejaVuSans-48"/>
      </g>
     </g>
    </g>
    <g id="xtick_6">
     <g id="line2d_11">
      <path clip-path="url(#p7c31e6e983)" d="M 286.76938 276.812 
L 286.76938 10.7 
" style="fill:none;stroke:#808080;stroke-dasharray:0.8,1.32;stroke-dashoffset:0;stroke-width:0.8;"/>
     </g>
     <g id="line2d_12">
      <g>
       <use style="stroke:#000000;stroke-width:0.8;" x="286.76938" xlink:href="#m79375d0b24" y="276.812"/>
      </g>
     </g>
     <g id="text_6">
      <!-- 1.2 -->
      <g transform="translate(278.817817 291.410438)scale(0.1 -0.1)">
       <use xlink:href="#DejaVuSans-49"/>
       <use x="63.623047" xlink:href="#DejaVuSans-46"/>
       <use x="95.410156" xlink:href="#DejaVuSans-50"/>
      </g>
     </g>
    </g>
    <g id="xtick_7">
     <g id="line2d_13">
      <path clip-path="url(#p7c31e6e983)" d="M 333.814349 276.812 
L 333.814349 10.7 
" style="fill:none;stroke:#808080;stroke-dasharray:0.8,1.32;stroke-dashoffset:0;stroke-width:0.8;"/>
     </g>
     <g id="line2d_14">
      <g>
       <use style="stroke:#000000;stroke-width:0.8;" x="333.814349" xlink:href="#m79375d0b24" y="276.812"/>
      </g>
     </g>
     <g id="text_7">
      <!-- 1.4 -->
      <g transform="translate(325.862786 291.410438)scale(0.1 -0.1)">
       <use xlink:href="#DejaVuSans-49"/>
       <use x="63.623047" xlink:href="#DejaVuSans-46"/>
       <use x="95.410156" xlink:href="#DejaVuSans-52"/>
      </g>
     </g>
    </g>
    <g id="xtick_8">
     <g id="line2d_15">
      <path clip-path="url(#p7c31e6e983)" d="M 380.859318 276.812 
L 380.859318 10.7 
" style="fill:none;stroke:#808080;stroke-dasharray:0.8,1.32;stroke-dashoffset:0;stroke-width:0.8;"/>
     </g>
     <g id="line2d_16">
      <g>
       <use style="stroke:#000000;stroke-width:0.8;" x="380.859318" xlink:href="#m79375d0b24" y="276.812"/>
      </g>
     </g>
     <g id="text_8">
      <!-- 1.6 -->
      <g transform="translate(372.907755 291.410438)scale(0.1 -0.1)">
       <use xlink:href="#DejaVuSans-49"/>
       <use x="63.623047" xlink:href="#DejaVuSans-46"/>
       <use x="95.410156" xlink:href="#DejaVuSans-54"/>
      </g>
     </g>
    </g>
    <g id="text_9">
     <!-- Frequency (Hz) -->
     <defs>
      <path d="M 9.8125 72.90625 
L 51.703125 72.90625 
L 51.703125 64.59375 
L 19.671875 64.59375 
L 19.671875 43.109375 
L 48.578125 43.109375 
L 48.578125 34.8125 
L 19.671875 34.8125 
L 19.671875 0 
L 9.8125 0 
z
" id="DejaVuSans-70"/>
      <path d="M 41.109375 46.296875 
Q 39.59375 47.171875 37.8125 47.578125 
Q 36.03125 48 33.890625 48 
Q 26.265625 48 22.1875 43.046875 
Q 18.109375 38.09375 18.109375 28.8125 
L 18.109375 0 
L 9.078125 0 
L 9.078125 54.6875 
L 18.109375 54.6875 
L 18.109375 46.1875 
Q 20.953125 51.171875 25.484375 53.578125 
Q 30.03125 56 36.53125 56 
Q 37.453125 56 38.578125 55.875 
Q 39.703125 55.765625 41.0625 55.515625 
z
" id="DejaVuSans-114"/>
      <path d="M 56.203125 29.59375 
L 56.203125 25.203125 
L 14.890625 25.203125 
Q 15.484375 15.921875 20.484375 11.0625 
Q 25.484375 6.203125 34.421875 6.203125 
Q 39.59375 6.203125 44.453125 7.46875 
Q 49.3125 8.734375 54.109375 11.28125 
L 54.109375 2.78125 
Q 49.265625 0.734375 44.1875 -0.34375 
Q 39.109375 -1.421875 33.890625 -1.421875 
Q 20.796875 -1.421875 13.15625 6.1875 
Q 5.515625 13.8125 5.515625 26.8125 
Q 5.515625 40.234375 12.765625 48.109375 
Q 20.015625 56 32.328125 56 
Q 43.359375 56 49.78125 48.890625 
Q 56.203125 41.796875 56.203125 29.59375 
z
M 47.21875 32.234375 
Q 47.125 39.59375 43.09375 43.984375 
Q 39.0625 48.390625 32.421875 48.390625 
Q 24.90625 48.390625 20.390625 44.140625 
Q 15.875 39.890625 15.1875 32.171875 
z
" id="DejaVuSans-101"/>
      <path d="M 14.796875 27.296875 
Q 14.796875 17.390625 18.875 11.75 
Q 22.953125 6.109375 30.078125 6.109375 
Q 37.203125 6.109375 41.296875 11.75 
Q 45.40625 17.390625 45.40625 27.296875 
Q 45.40625 37.203125 41.296875 42.84375 
Q 37.203125 48.484375 30.078125 48.484375 
Q 22.953125 48.484375 18.875 42.84375 
Q 14.796875 37.203125 14.796875 27.296875 
z
M 45.40625 8.203125 
Q 42.578125 3.328125 38.25 0.953125 
Q 33.9375 -1.421875 27.875 -1.421875 
Q 17.96875 -1.421875 11.734375 6.484375 
Q 5.515625 14.40625 5.515625 27.296875 
Q 5.515625 40.1875 11.734375 48.09375 
Q 17.96875 56 27.875 56 
Q 33.9375 56 38.25 53.625 
Q 42.578125 51.265625 45.40625 46.390625 
L 45.40625 54.6875 
L 54.390625 54.6875 
L 54.390625 -20.796875 
L 45.40625 -20.796875 
z
" id="DejaVuSans-113"/>
      <path d="M 8.5 21.578125 
L 8.5 54.6875 
L 17.484375 54.6875 
L 17.484375 21.921875 
Q 17.484375 14.15625 20.5 10.265625 
Q 23.53125 6.390625 29.59375 6.390625 
Q 36.859375 6.390625 41.078125 11.03125 
Q 45.3125 15.671875 45.3125 23.6875 
L 45.3125 54.6875 
L 54.296875 54.6875 
L 54.296875 0 
L 45.3125 0 
L 45.3125 8.40625 
Q 42.046875 3.421875 37.71875 1 
Q 33.40625 -1.421875 27.6875 -1.421875 
Q 18.265625 -1.421875 13.375 4.4375 
Q 8.5 10.296875 8.5 21.578125 
z
M 31.109375 56 
z
" id="DejaVuSans-117"/>
      <path d="M 54.890625 33.015625 
L 54.890625 0 
L 45.90625 0 
L 45.90625 32.71875 
Q 45.90625 40.484375 42.875 44.328125 
Q 39.84375 48.1875 33.796875 48.1875 
Q 26.515625 48.1875 22.3125 43.546875 
Q 18.109375 38.921875 18.109375 30.90625 
L 18.109375 0 
L 9.078125 0 
L 9.078125 54.6875 
L 18.109375 54.6875 
L 18.109375 46.1875 
Q 21.34375 51.125 25.703125 53.5625 
Q 30.078125 56 35.796875 56 
Q 45.21875 56 50.046875 50.171875 
Q 54.890625 44.34375 54.890625 33.015625 
z
" id="DejaVuSans-110"/>
      <path d="M 48.78125 52.59375 
L 48.78125 44.1875 
Q 44.96875 46.296875 41.140625 47.34375 
Q 37.3125 48.390625 33.40625 48.390625 
Q 24.65625 48.390625 19.8125 42.84375 
Q 14.984375 37.3125 14.984375 27.296875 
Q 14.984375 17.28125 19.8125 11.734375 
Q 24.65625 6.203125 33.40625 6.203125 
Q 37.3125 6.203125 41.140625 7.25 
Q 44.96875 8.296875 48.78125 10.40625 
L 48.78125 2.09375 
Q 45.015625 0.34375 40.984375 -0.53125 
Q 36.96875 -1.421875 32.421875 -1.421875 
Q 20.0625 -1.421875 12.78125 6.34375 
Q 5.515625 14.109375 5.515625 27.296875 
Q 5.515625 40.671875 12.859375 48.328125 
Q 20.21875 56 33.015625 56 
Q 37.15625 56 41.109375 55.140625 
Q 45.0625 54.296875 48.78125 52.59375 
z
" id="DejaVuSans-99"/>
      <path d="M 32.171875 -5.078125 
Q 28.375 -14.84375 24.75 -17.8125 
Q 21.140625 -20.796875 15.09375 -20.796875 
L 7.90625 -20.796875 
L 7.90625 -13.28125 
L 13.1875 -13.28125 
Q 16.890625 -13.28125 18.9375 -11.515625 
Q 21 -9.765625 23.484375 -3.21875 
L 25.09375 0.875 
L 2.984375 54.6875 
L 12.5 54.6875 
L 29.59375 11.921875 
L 46.6875 54.6875 
L 56.203125 54.6875 
z
" id="DejaVuSans-121"/>
      <path id="DejaVuSans-32"/>
      <path d="M 31 75.875 
Q 24.46875 64.65625 21.28125 53.65625 
Q 18.109375 42.671875 18.109375 31.390625 
Q 18.109375 20.125 21.3125 9.0625 
Q 24.515625 -2 31 -13.1875 
L 23.1875 -13.1875 
Q 15.875 -1.703125 12.234375 9.375 
Q 8.59375 20.453125 8.59375 31.390625 
Q 8.59375 42.28125 12.203125 53.3125 
Q 15.828125 64.359375 23.1875 75.875 
z
" id="DejaVuSans-40"/>
      <path d="M 9.8125 72.90625 
L 19.671875 72.90625 
L 19.671875 43.015625 
L 55.515625 43.015625 
L 55.515625 72.90625 
L 65.375 72.90625 
L 65.375 0 
L 55.515625 0 
L 55.515625 34.71875 
L 19.671875 34.71875 
L 19.671875 0 
L 9.8125 0 
z
" id="DejaVuSans-72"/>
      <path d="M 5.515625 54.6875 
L 48.1875 54.6875 
L 48.1875 46.484375 
L 14.40625 7.171875 
L 48.1875 7.171875 
L 48.1875 0 
L 4.296875 0 
L 4.296875 8.203125 
L 38.09375 47.515625 
L 5.515625 47.515625 
z
" id="DejaVuSans-122"/>
      <path d="M 8.015625 75.875 
L 15.828125 75.875 
Q 23.140625 64.359375 26.78125 53.3125 
Q 30.421875 42.28125 30.421875 31.390625 
Q 30.421875 20.453125 26.78125 9.375 
Q 23.140625 -1.703125 15.828125 -13.1875 
L 8.015625 -13.1875 
Q 14.5 -2 17.703125 9.0625 
Q 20.90625 20.125 20.90625 31.390625 
Q 20.90625 42.671875 17.703125 53.65625 
Q 14.5 64.65625 8.015625 75.875 
z
" id="DejaVuSans-41"/>
     </defs>
     <g transform="translate(180.990469 305.088562)scale(0.1 -0.1)">
      <use xlink:href="#DejaVuSans-70"/>
      <use x="57.410156" xlink:href="#DejaVuSans-114"/>
      <use x="98.492188" xlink:href="#DejaVuSans-101"/>
      <use x="160.015625" xlink:href="#DejaVuSans-113"/>
      <use x="223.492188" xlink:href="#DejaVuSans-117"/>
      <use x="286.871094" xlink:href="#DejaVuSans-101"/>
      <use x="348.394531" xlink:href="#DejaVuSans-110"/>
      <use x="411.773438" xlink:href="#DejaVuSans-99"/>
      <use x="466.753906" xlink:href="#DejaVuSans-121"/>
      <use x="525.933594" xlink:href="#DejaVuSans-32"/>
      <use x="557.720703" xlink:href="#DejaVuSans-40"/>
      <use x="596.734375" xlink:href="#DejaVuSans-72"/>
      <use x="671.929688" xlink:href="#DejaVuSans-122"/>
      <use x="724.419922" xlink:href="#DejaVuSans-41"/>
     </g>
    </g>
    <g id="text_10">
     <!-- 1e8 -->
     <g transform="translate(378.845 304.088562)scale(0.1 -0.1)">
      <use xlink:href="#DejaVuSans-49"/>
      <use x="63.623047" xlink:href="#DejaVuSans-101"/>
      <use x="125.146484" xlink:href="#DejaVuSans-56"/>
     </g>
    </g>
   </g>
   <g id="matplotlib.axis_2">
    <g id="ytick_1">
     <g id="line2d_17">
      <path clip-path="url(#p7c31e6e983)" d="M 40.603125 244.34624 
L 397.723125 244.34624 
" style="fill:none;stroke:#808080;stroke-dasharray:0.8,1.32;stroke-dashoffset:0;stroke-width:0.8;"/>
     </g>
     <g id="line2d_18">
      <defs>
       <path d="M 0 0 
L -3.5 0 
" id="m26fdc49363" style="stroke:#000000;stroke-width:0.8;"/>
      </defs>
      <g>
       <use style="stroke:#000000;stroke-width:0.8;" x="40.603125" xlink:href="#m26fdc49363" y="244.34624"/>
      </g>
     </g>
     <g id="text_11">
      <!-- 30 -->
      <defs>
       <path d="M 40.578125 39.3125 
Q 47.65625 37.796875 51.625 33 
Q 55.609375 28.21875 55.609375 21.1875 
Q 55.609375 10.40625 48.1875 4.484375 
Q 40.765625 -1.421875 27.09375 -1.421875 
Q 22.515625 -1.421875 17.65625 -0.515625 
Q 12.796875 0.390625 7.625 2.203125 
L 7.625 11.71875 
Q 11.71875 9.328125 16.59375 8.109375 
Q 21.484375 6.890625 26.8125 6.890625 
Q 36.078125 6.890625 40.9375 10.546875 
Q 45.796875 14.203125 45.796875 21.1875 
Q 45.796875 27.640625 41.28125 31.265625 
Q 36.765625 34.90625 28.71875 34.90625 
L 20.21875 34.90625 
L 20.21875 43.015625 
L 29.109375 43.015625 
Q 36.375 43.015625 40.234375 45.921875 
Q 44.09375 48.828125 44.09375 54.296875 
Q 44.09375 59.90625 40.109375 62.90625 
Q 36.140625 65.921875 28.71875 65.921875 
Q 24.65625 65.921875 20.015625 65.03125 
Q 15.375 64.15625 9.8125 62.3125 
L 9.8125 71.09375 
Q 15.4375 72.65625 20.34375 73.4375 
Q 25.25 74.21875 29.59375 74.21875 
Q 40.828125 74.21875 47.359375 69.109375 
Q 53.90625 64.015625 53.90625 55.328125 
Q 53.90625 49.265625 50.4375 45.09375 
Q 46.96875 40.921875 40.578125 39.3125 
z
" id="DejaVuSans-51"/>
      </defs>
      <g transform="translate(20.878125 248.145459)scale(0.1 -0.1)">
       <use xlink:href="#DejaVuSans-51"/>
       <use x="63.623047" xlink:href="#DejaVuSans-48"/>
      </g>
     </g>
    </g>
    <g id="ytick_2">
     <g id="line2d_19">
      <path clip-path="url(#p7c31e6e983)" d="M 40.603125 209.525076 
L 397.723125 209.525076 
" style="fill:none;stroke:#808080;stroke-dasharray:0.8,1.32;stroke-dashoffset:0;stroke-width:0.8;"/>
     </g>
     <g id="line2d_20">
      <g>
       <use style="stroke:#000000;stroke-width:0.8;" x="40.603125" xlink:href="#m26fdc49363" y="209.525076"/>
      </g>
     </g>
     <g id="text_12">
      <!-- 40 -->
      <g transform="translate(20.878125 213.324295)scale(0.1 -0.1)">
       <use xlink:href="#DejaVuSans-52"/>
       <use x="63.623047" xlink:href="#DejaVuSans-48"/>
      </g>
     </g>
    </g>
    <g id="ytick_3">
     <g id="line2d_21">
      <path clip-path="url(#p7c31e6e983)" d="M 40.603125 174.703911 
L 397.723125 174.703911 
" style="fill:none;stroke:#808080;stroke-dasharray:0.8,1.32;stroke-dashoffset:0;stroke-width:0.8;"/>
     </g>
     <g id="line2d_22">
      <g>
       <use style="stroke:#000000;stroke-width:0.8;" x="40.603125" xlink:href="#m26fdc49363" y="174.703911"/>
      </g>
     </g>
     <g id="text_13">
      <!-- 50 -->
      <defs>
       <path d="M 10.796875 72.90625 
L 49.515625 72.90625 
L 49.515625 64.59375 
L 19.828125 64.59375 
L 19.828125 46.734375 
Q 21.96875 47.46875 24.109375 47.828125 
Q 26.265625 48.1875 28.421875 48.1875 
Q 40.625 48.1875 47.75 41.5 
Q 54.890625 34.8125 54.890625 23.390625 
Q 54.890625 11.625 47.5625 5.09375 
Q 40.234375 -1.421875 26.90625 -1.421875 
Q 22.3125 -1.421875 17.546875 -0.640625 
Q 12.796875 0.140625 7.71875 1.703125 
L 7.71875 11.625 
Q 12.109375 9.234375 16.796875 8.0625 
Q 21.484375 6.890625 26.703125 6.890625 
Q 35.15625 6.890625 40.078125 11.328125 
Q 45.015625 15.765625 45.015625 23.390625 
Q 45.015625 31 40.078125 35.4375 
Q 35.15625 39.890625 26.703125 39.890625 
Q 22.75 39.890625 18.8125 39.015625 
Q 14.890625 38.140625 10.796875 36.28125 
z
" id="DejaVuSans-53"/>
      </defs>
      <g transform="translate(20.878125 178.50313)scale(0.1 -0.1)">
       <use xlink:href="#DejaVuSans-53"/>
       <use x="63.623047" xlink:href="#DejaVuSans-48"/>
      </g>
     </g>
    </g>
    <g id="ytick_4">
     <g id="line2d_23">
      <path clip-path="url(#p7c31e6e983)" d="M 40.603125 139.882747 
L 397.723125 139.882747 
" style="fill:none;stroke:#808080;stroke-dasharray:0.8,1.32;stroke-dashoffset:0;stroke-width:0.8;"/>
     </g>
     <g id="line2d_24">
      <g>
       <use style="stroke:#000000;stroke-width:0.8;" x="40.603125" xlink:href="#m26fdc49363" y="139.882747"/>
      </g>
     </g>
     <g id="text_14">
      <!-- 60 -->
      <g transform="translate(20.878125 143.681965)scale(0.1 -0.1)">
       <use xlink:href="#DejaVuSans-54"/>
       <use x="63.623047" xlink:href="#DejaVuSans-48"/>
      </g>
     </g>
    </g>
    <g id="ytick_5">
     <g id="line2d_25">
      <path clip-path="url(#p7c31e6e983)" d="M 40.603125 105.061582 
L 397.723125 105.061582 
" style="fill:none;stroke:#808080;stroke-dasharray:0.8,1.32;stroke-dashoffset:0;stroke-width:0.8;"/>
     </g>
     <g id="line2d_26">
      <g>
       <use style="stroke:#000000;stroke-width:0.8;" x="40.603125" xlink:href="#m26fdc49363" y="105.061582"/>
      </g>
     </g>
     <g id="text_15">
      <!-- 70 -->
      <defs>
       <path d="M 8.203125 72.90625 
L 55.078125 72.90625 
L 55.078125 68.703125 
L 28.609375 0 
L 18.3125 0 
L 43.21875 64.59375 
L 8.203125 64.59375 
z
" id="DejaVuSans-55"/>
      </defs>
      <g transform="translate(20.878125 108.860801)scale(0.1 -0.1)">
       <use xlink:href="#DejaVuSans-55"/>
       <use x="63.623047" xlink:href="#DejaVuSans-48"/>
      </g>
     </g>
    </g>
    <g id="ytick_6">
     <g id="line2d_27">
      <path clip-path="url(#p7c31e6e983)" d="M 40.603125 70.240417 
L 397.723125 70.240417 
" style="fill:none;stroke:#808080;stroke-dasharray:0.8,1.32;stroke-dashoffset:0;stroke-width:0.8;"/>
     </g>
     <g id="line2d_28">
      <g>
       <use style="stroke:#000000;stroke-width:0.8;" x="40.603125" xlink:href="#m26fdc49363" y="70.240417"/>
      </g>
     </g>
     <g id="text_16">
      <!-- 80 -->
      <g transform="translate(20.878125 74.039636)scale(0.1 -0.1)">
       <use xlink:href="#DejaVuSans-56"/>
       <use x="63.623047" xlink:href="#DejaVuSans-48"/>
      </g>
     </g>
    </g>
    <g id="ytick_7">
     <g id="line2d_29">
      <path clip-path="url(#p7c31e6e983)" d="M 40.603125 35.419253 
L 397.723125 35.419253 
" style="fill:none;stroke:#808080;stroke-dasharray:0.8,1.32;stroke-dashoffset:0;stroke-width:0.8;"/>
     </g>
     <g id="line2d_30">
      <g>
       <use style="stroke:#000000;stroke-width:0.8;" x="40.603125" xlink:href="#m26fdc49363" y="35.419253"/>
      </g>
     </g>
     <g id="text_17">
      <!-- 90 -->
      <defs>
       <path d="M 10.984375 1.515625 
L 10.984375 10.5 
Q 14.703125 8.734375 18.5 7.8125 
Q 22.3125 6.890625 25.984375 6.890625 
Q 35.75 6.890625 40.890625 13.453125 
Q 46.046875 20.015625 46.78125 33.40625 
Q 43.953125 29.203125 39.59375 26.953125 
Q 35.25 24.703125 29.984375 24.703125 
Q 19.046875 24.703125 12.671875 31.3125 
Q 6.296875 37.9375 6.296875 49.421875 
Q 6.296875 60.640625 12.9375 67.421875 
Q 19.578125 74.21875 30.609375 74.21875 
Q 43.265625 74.21875 49.921875 64.515625 
Q 56.59375 54.828125 56.59375 36.375 
Q 56.59375 19.140625 48.40625 8.859375 
Q 40.234375 -1.421875 26.421875 -1.421875 
Q 22.703125 -1.421875 18.890625 -0.6875 
Q 15.09375 0.046875 10.984375 1.515625 
z
M 30.609375 32.421875 
Q 37.25 32.421875 41.125 36.953125 
Q 45.015625 41.5 45.015625 49.421875 
Q 45.015625 57.28125 41.125 61.84375 
Q 37.25 66.40625 30.609375 66.40625 
Q 23.96875 66.40625 20.09375 61.84375 
Q 16.21875 57.28125 16.21875 49.421875 
Q 16.21875 41.5 20.09375 36.953125 
Q 23.96875 32.421875 30.609375 32.421875 
z
" id="DejaVuSans-57"/>
      </defs>
      <g transform="translate(20.878125 39.218471)scale(0.1 -0.1)">
       <use xlink:href="#DejaVuSans-57"/>
       <use x="63.623047" xlink:href="#DejaVuSans-48"/>
      </g>
     </g>
    </g>
    <g id="text_18">
     <!-- Time (s) -->
     <defs>
      <path d="M -0.296875 72.90625 
L 61.375 72.90625 
L 61.375 64.59375 
L 35.5 64.59375 
L 35.5 0 
L 25.59375 0 
L 25.59375 64.59375 
L -0.296875 64.59375 
z
" id="DejaVuSans-84"/>
      <path d="M 9.421875 54.6875 
L 18.40625 54.6875 
L 18.40625 0 
L 9.421875 0 
z
M 9.421875 75.984375 
L 18.40625 75.984375 
L 18.40625 64.59375 
L 9.421875 64.59375 
z
" id="DejaVuSans-105"/>
      <path d="M 52 44.1875 
Q 55.375 50.25 60.0625 53.125 
Q 64.75 56 71.09375 56 
Q 79.640625 56 84.28125 50.015625 
Q 88.921875 44.046875 88.921875 33.015625 
L 88.921875 0 
L 79.890625 0 
L 79.890625 32.71875 
Q 79.890625 40.578125 77.09375 44.375 
Q 74.3125 48.1875 68.609375 48.1875 
Q 61.625 48.1875 57.5625 43.546875 
Q 53.515625 38.921875 53.515625 30.90625 
L 53.515625 0 
L 44.484375 0 
L 44.484375 32.71875 
Q 44.484375 40.625 41.703125 44.40625 
Q 38.921875 48.1875 33.109375 48.1875 
Q 26.21875 48.1875 22.15625 43.53125 
Q 18.109375 38.875 18.109375 30.90625 
L 18.109375 0 
L 9.078125 0 
L 9.078125 54.6875 
L 18.109375 54.6875 
L 18.109375 46.1875 
Q 21.1875 51.21875 25.484375 53.609375 
Q 29.78125 56 35.6875 56 
Q 41.65625 56 45.828125 52.96875 
Q 50 49.953125 52 44.1875 
z
" id="DejaVuSans-109"/>
      <path d="M 44.28125 53.078125 
L 44.28125 44.578125 
Q 40.484375 46.53125 36.375 47.5 
Q 32.28125 48.484375 27.875 48.484375 
Q 21.1875 48.484375 17.84375 46.4375 
Q 14.5 44.390625 14.5 40.28125 
Q 14.5 37.15625 16.890625 35.375 
Q 19.28125 33.59375 26.515625 31.984375 
L 29.59375 31.296875 
Q 39.15625 29.25 43.1875 25.515625 
Q 47.21875 21.78125 47.21875 15.09375 
Q 47.21875 7.46875 41.1875 3.015625 
Q 35.15625 -1.421875 24.609375 -1.421875 
Q 20.21875 -1.421875 15.453125 -0.5625 
Q 10.6875 0.296875 5.421875 2 
L 5.421875 11.28125 
Q 10.40625 8.6875 15.234375 7.390625 
Q 20.0625 6.109375 24.8125 6.109375 
Q 31.15625 6.109375 34.5625 8.28125 
Q 37.984375 10.453125 37.984375 14.40625 
Q 37.984375 18.0625 35.515625 20.015625 
Q 33.0625 21.96875 24.703125 23.78125 
L 21.578125 24.515625 
Q 13.234375 26.265625 9.515625 29.90625 
Q 5.8125 33.546875 5.8125 39.890625 
Q 5.8125 47.609375 11.28125 51.796875 
Q 16.75 56 26.8125 56 
Q 31.78125 56 36.171875 55.265625 
Q 40.578125 54.546875 44.28125 53.078125 
z
" id="DejaVuSans-115"/>
     </defs>
     <g transform="translate(14.798438 164.238812)rotate(-90)scale(0.1 -0.1)">
      <use xlink:href="#DejaVuSans-84"/>
      <use x="61.037109" xlink:href="#DejaVuSans-105"/>
      <use x="88.820312" xlink:href="#DejaVuSans-109"/>
      <use x="186.232422" xlink:href="#DejaVuSans-101"/>
      <use x="247.755859" xlink:href="#DejaVuSans-32"/>
      <use x="279.542969" xlink:href="#DejaVuSans-40"/>
      <use x="318.556641" xlink:href="#DejaVuSans-115"/>
      <use x="370.65625" xlink:href="#DejaVuSans-41"/>
     </g>
    </g>
   </g>
   <g id="line2d_31">
    <defs>
     <path d="M 0 1 
C 0.265203 1 0.51958 0.894634 0.707107 0.707107 
C 0.894634 0.51958 1 0.265203 1 0 
C 1 -0.265203 0.894634 -0.51958 0.707107 -0.707107 
C 0.51958 -0.894634 0.265203 -1 0 -1 
C -0.265203 -1 -0.51958 -0.894634 -0.707107 -0.707107 
C -0.894634 -0.51958 -1 -0.265203 -1 0 
C -1 0.265203 -0.894634 0.51958 -0.707107 0.707107 
C -0.51958 0.894634 -0.265203 1 0 1 
z
" id="m933f740d67" style="stroke:#0000ff;stroke-opacity:0.7;"/>
    </defs>
    <g clip-path="url(#p7c31e6e983)">
     <use style="fill:#0000ff;fill-opacity:0.7;stroke:#0000ff;stroke-opacity:0.7;" x="56.835852" xlink:href="#m933f740d67" y="22.796"/>
     <use style="fill:#0000ff;fill-opacity:0.7;stroke:#0000ff;stroke-opacity:0.7;" x="60.111688" xlink:href="#m933f740d67" y="34.753754"/>
     <use style="fill:#0000ff;fill-opacity:0.7;stroke:#0000ff;stroke-opacity:0.7;" x="62.346963" xlink:href="#m933f740d67" y="44.430182"/>
     <use style="fill:#0000ff;fill-opacity:0.7;stroke:#0000ff;stroke-opacity:0.7;" x="66.432123" xlink:href="#m933f740d67" y="55.106393"/>
     <use style="fill:#0000ff;fill-opacity:0.7;stroke:#0000ff;stroke-opacity:0.7;" x="67.742457" xlink:href="#m933f740d67" y="64.546701"/>
     <use style="fill:#0000ff;fill-opacity:0.7;stroke:#0000ff;stroke-opacity:0.7;" x="68.975712" xlink:href="#m933f740d67" y="73.282958"/>
     <use style="fill:#0000ff;fill-opacity:0.7;stroke:#0000ff;stroke-opacity:0.7;" x="73.831656" xlink:href="#m933f740d67" y="81.692808"/>
     <use style="fill:#0000ff;fill-opacity:0.7;stroke:#0000ff;stroke-opacity:0.7;" x="74.833677" xlink:href="#m933f740d67" y="88.829199"/>
     <use style="fill:#0000ff;fill-opacity:0.7;stroke:#0000ff;stroke-opacity:0.7;" x="76.529403" xlink:href="#m933f740d67" y="96.187491"/>
     <use style="fill:#0000ff;fill-opacity:0.7;stroke:#0000ff;stroke-opacity:0.7;" x="77.993894" xlink:href="#m933f740d67" y="102.158409"/>
     <use style="fill:#0000ff;fill-opacity:0.7;stroke:#0000ff;stroke-opacity:0.7;" x="83.582084" xlink:href="#m933f740d67" y="110.59653"/>
     <use style="fill:#0000ff;fill-opacity:0.7;stroke:#0000ff;stroke-opacity:0.7;" x="86.81938" xlink:href="#m933f740d67" y="115.78762"/>
     <use style="fill:#0000ff;fill-opacity:0.7;stroke:#0000ff;stroke-opacity:0.7;" x="85.431967" xlink:href="#m933f740d67" y="120.339658"/>
     <use style="fill:#0000ff;fill-opacity:0.7;stroke:#0000ff;stroke-opacity:0.7;" x="90.673304" xlink:href="#m933f740d67" y="124.87271"/>
     <use style="fill:#0000ff;fill-opacity:0.7;stroke:#0000ff;stroke-opacity:0.7;" x="92.523187" xlink:href="#m933f740d67" y="130.42279"/>
     <use style="fill:#0000ff;fill-opacity:0.7;stroke:#0000ff;stroke-opacity:0.7;" x="92.754423" xlink:href="#m933f740d67" y="134.567503"/>
     <use style="fill:#0000ff;fill-opacity:0.7;stroke:#0000ff;stroke-opacity:0.7;" x="94.758463" xlink:href="#m933f740d67" y="141.432537"/>
     <use style="fill:#0000ff;fill-opacity:0.7;stroke:#0000ff;stroke-opacity:0.7;" x="97.841602" xlink:href="#m933f740d67" y="142.427635"/>
     <use style="fill:#0000ff;fill-opacity:0.7;stroke:#0000ff;stroke-opacity:0.7;" x="103.00586" xlink:href="#m933f740d67" y="148.843186"/>
     <use style="fill:#0000ff;fill-opacity:0.7;stroke:#0000ff;stroke-opacity:0.7;" x="104.316194" xlink:href="#m933f740d67" y="151.830468"/>
     <use style="fill:#0000ff;fill-opacity:0.7;stroke:#0000ff;stroke-opacity:0.7;" x="104.932822" xlink:href="#m933f740d67" y="156.677575"/>
     <use style="fill:#0000ff;fill-opacity:0.7;stroke:#0000ff;stroke-opacity:0.7;" x="106.782705" xlink:href="#m933f740d67" y="161.326656"/>
     <use style="fill:#0000ff;fill-opacity:0.7;stroke:#0000ff;stroke-opacity:0.7;" x="111.176179" xlink:href="#m933f740d67" y="162.658649"/>
     <use style="fill:#0000ff;fill-opacity:0.7;stroke:#0000ff;stroke-opacity:0.7;" x="109.788766" xlink:href="#m933f740d67" y="165.005554"/>
     <use style="fill:#0000ff;fill-opacity:0.7;stroke:#0000ff;stroke-opacity:0.7;" x="114.105161" xlink:href="#m933f740d67" y="170.291531"/>
     <use style="fill:#0000ff;fill-opacity:0.7;stroke:#0000ff;stroke-opacity:0.7;" x="117.804928" xlink:href="#m933f740d67" y="171.369868"/>
     <use style="fill:#0000ff;fill-opacity:0.7;stroke:#0000ff;stroke-opacity:0.7;" x="117.419535" xlink:href="#m933f740d67" y="173.950986"/>
     <use style="fill:#0000ff;fill-opacity:0.7;stroke:#0000ff;stroke-opacity:0.7;" x="120.656831" xlink:href="#m933f740d67" y="177.865756"/>
     <use style="fill:#0000ff;fill-opacity:0.7;stroke:#0000ff;stroke-opacity:0.7;" x="124.741991" xlink:href="#m933f740d67" y="178.724678"/>
     <use style="fill:#0000ff;fill-opacity:0.7;stroke:#0000ff;stroke-opacity:0.7;" x="125.358618" xlink:href="#m933f740d67" y="181.169041"/>
     <use style="fill:#0000ff;fill-opacity:0.7;stroke:#0000ff;stroke-opacity:0.7;" x="131.83321" xlink:href="#m933f740d67" y="184.524392"/>
     <use style="fill:#0000ff;fill-opacity:0.7;stroke:#0000ff;stroke-opacity:0.7;" x="131.216583" xlink:href="#m933f740d67" y="186.660214"/>
     <use style="fill:#0000ff;fill-opacity:0.7;stroke:#0000ff;stroke-opacity:0.7;" x="132.064446" xlink:href="#m933f740d67" y="187.855326"/>
     <use style="fill:#0000ff;fill-opacity:0.7;stroke:#0000ff;stroke-opacity:0.7;" x="135.532977" xlink:href="#m933f740d67" y="190.801238"/>
     <use style="fill:#0000ff;fill-opacity:0.7;stroke:#0000ff;stroke-opacity:0.7;" x="141.390942" xlink:href="#m933f740d67" y="193.736497"/>
     <use style="fill:#0000ff;fill-opacity:0.7;stroke:#0000ff;stroke-opacity:0.7;" x="141.699256" xlink:href="#m933f740d67" y="195.701654"/>
     <use style="fill:#0000ff;fill-opacity:0.7;stroke:#0000ff;stroke-opacity:0.7;" x="142.701276" xlink:href="#m933f740d67" y="196.54615"/>
     <use style="fill:#0000ff;fill-opacity:0.7;stroke:#0000ff;stroke-opacity:0.7;" x="146.478121" xlink:href="#m933f740d67" y="199.088095"/>
     <use style="fill:#0000ff;fill-opacity:0.7;stroke:#0000ff;stroke-opacity:0.7;" x="148.328005" xlink:href="#m933f740d67" y="201.243857"/>
     <use style="fill:#0000ff;fill-opacity:0.7;stroke:#0000ff;stroke-opacity:0.7;" x="146.632278" xlink:href="#m933f740d67" y="201.519732"/>
     <use style="fill:#0000ff;fill-opacity:0.7;stroke:#0000ff;stroke-opacity:0.7;" x="152.798556" xlink:href="#m933f740d67" y="203.316669"/>
     <use style="fill:#0000ff;fill-opacity:0.7;stroke:#0000ff;stroke-opacity:0.7;" x="153.723498" xlink:href="#m933f740d67" y="205.056857"/>
     <use style="fill:#0000ff;fill-opacity:0.7;stroke:#0000ff;stroke-opacity:0.7;" x="156.421245" xlink:href="#m933f740d67" y="206.878833"/>
     <use style="fill:#0000ff;fill-opacity:0.7;stroke:#0000ff;stroke-opacity:0.7;" x="160.043933" xlink:href="#m933f740d67" y="207.778546"/>
     <use style="fill:#0000ff;fill-opacity:0.7;stroke:#0000ff;stroke-opacity:0.7;" x="163.435386" xlink:href="#m933f740d67" y="210.099086"/>
     <use style="fill:#0000ff;fill-opacity:0.7;stroke:#0000ff;stroke-opacity:0.7;" x="165.670662" xlink:href="#m933f740d67" y="211.43083"/>
     <use style="fill:#0000ff;fill-opacity:0.7;stroke:#0000ff;stroke-opacity:0.7;" x="164.129092" xlink:href="#m933f740d67" y="212.901527"/>
     <use style="fill:#0000ff;fill-opacity:0.7;stroke:#0000ff;stroke-opacity:0.7;" x="167.212231" xlink:href="#m933f740d67" y="213.356026"/>
     <use style="fill:#0000ff;fill-opacity:0.7;stroke:#0000ff;stroke-opacity:0.7;" x="173.532667" xlink:href="#m933f740d67" y="216.199879"/>
     <use style="fill:#0000ff;fill-opacity:0.7;stroke:#0000ff;stroke-opacity:0.7;" x="173.532667" xlink:href="#m933f740d67" y="216.269521"/>
     <use style="fill:#0000ff;fill-opacity:0.7;stroke:#0000ff;stroke-opacity:0.7;" x="174.534687" xlink:href="#m933f740d67" y="217.778189"/>
     <use style="fill:#0000ff;fill-opacity:0.7;stroke:#0000ff;stroke-opacity:0.7;" x="180.315573" xlink:href="#m933f740d67" y="219.987965"/>
     <use style="fill:#0000ff;fill-opacity:0.7;stroke:#0000ff;stroke-opacity:0.7;" x="182.088378" xlink:href="#m933f740d67" y="220.745243"/>
     <use style="fill:#0000ff;fill-opacity:0.7;stroke:#0000ff;stroke-opacity:0.7;" x="183.784104" xlink:href="#m933f740d67" y="222.239071"/>
     <use style="fill:#0000ff;fill-opacity:0.7;stroke:#0000ff;stroke-opacity:0.7;" x="185.325674" xlink:href="#m933f740d67" y="223.674863"/>
     <use style="fill:#0000ff;fill-opacity:0.7;stroke:#0000ff;stroke-opacity:0.7;" x="188.485891" xlink:href="#m933f740d67" y="224.457428"/>
     <use style="fill:#0000ff;fill-opacity:0.7;stroke:#0000ff;stroke-opacity:0.7;" x="190.56701" xlink:href="#m933f740d67" y="225.202642"/>
     <use style="fill:#0000ff;fill-opacity:0.7;stroke:#0000ff;stroke-opacity:0.7;" x="193.264757" xlink:href="#m933f740d67" y="226.394728"/>
     <use style="fill:#0000ff;fill-opacity:0.7;stroke:#0000ff;stroke-opacity:0.7;" x="197.426994" xlink:href="#m933f740d67" y="227.806726"/>
     <use style="fill:#0000ff;fill-opacity:0.7;stroke:#0000ff;stroke-opacity:0.7;" x="196.810367" xlink:href="#m933f740d67" y="227.876866"/>
     <use style="fill:#0000ff;fill-opacity:0.7;stroke:#0000ff;stroke-opacity:0.7;" x="200.278898" xlink:href="#m933f740d67" y="229.151238"/>
     <use style="fill:#0000ff;fill-opacity:0.7;stroke:#0000ff;stroke-opacity:0.7;" x="200.433055" xlink:href="#m933f740d67" y="230.280397"/>
     <use style="fill:#0000ff;fill-opacity:0.7;stroke:#0000ff;stroke-opacity:0.7;" x="203.978665" xlink:href="#m933f740d67" y="230.585621"/>
     <use style="fill:#0000ff;fill-opacity:0.7;stroke:#0000ff;stroke-opacity:0.7;" x="193.881385" xlink:href="#m933f740d67" y="224.484497"/>
     <use style="fill:#0000ff;fill-opacity:0.7;stroke:#0000ff;stroke-opacity:0.7;" x="209.374158" xlink:href="#m933f740d67" y="230.923428"/>
     <use style="fill:#0000ff;fill-opacity:0.7;stroke:#0000ff;stroke-opacity:0.7;" x="211.686513" xlink:href="#m933f740d67" y="231.648827"/>
     <use style="fill:#0000ff;fill-opacity:0.7;stroke:#0000ff;stroke-opacity:0.7;" x="213.459318" xlink:href="#m933f740d67" y="232.592812"/>
     <use style="fill:#0000ff;fill-opacity:0.7;stroke:#0000ff;stroke-opacity:0.7;" x="216.234143" xlink:href="#m933f740d67" y="233.388932"/>
     <use style="fill:#0000ff;fill-opacity:0.7;stroke:#0000ff;stroke-opacity:0.7;" x="219.086047" xlink:href="#m933f740d67" y="234.065623"/>
     <use style="fill:#0000ff;fill-opacity:0.7;stroke:#0000ff;stroke-opacity:0.7;" x="220.319302" xlink:href="#m933f740d67" y="234.620192"/>
     <use style="fill:#0000ff;fill-opacity:0.7;stroke:#0000ff;stroke-opacity:0.7;" x="223.094127" xlink:href="#m933f740d67" y="234.989835"/>
     <use style="fill:#0000ff;fill-opacity:0.7;stroke:#0000ff;stroke-opacity:0.7;" x="226.639737" xlink:href="#m933f740d67" y="236.439763"/>
     <use style="fill:#0000ff;fill-opacity:0.7;stroke:#0000ff;stroke-opacity:0.7;" x="227.641757" xlink:href="#m933f740d67" y="236.948235"/>
     <use style="fill:#0000ff;fill-opacity:0.7;stroke:#0000ff;stroke-opacity:0.7;" x="230.416583" xlink:href="#m933f740d67" y="237.813997"/>
     <use style="fill:#0000ff;fill-opacity:0.7;stroke:#0000ff;stroke-opacity:0.7;" x="232.57478" xlink:href="#m933f740d67" y="238.754666"/>
     <use style="fill:#0000ff;fill-opacity:0.7;stroke:#0000ff;stroke-opacity:0.7;" x="234.655899" xlink:href="#m933f740d67" y="239.04733"/>
     <use style="fill:#0000ff;fill-opacity:0.7;stroke:#0000ff;stroke-opacity:0.7;" x="238.047352" xlink:href="#m933f740d67" y="239.237727"/>
     <use style="fill:#0000ff;fill-opacity:0.7;stroke:#0000ff;stroke-opacity:0.7;" x="239.743078" xlink:href="#m933f740d67" y="240.468572"/>
     <use style="fill:#0000ff;fill-opacity:0.7;stroke:#0000ff;stroke-opacity:0.7;" x="241.67004" xlink:href="#m933f740d67" y="240.50986"/>
     <use style="fill:#0000ff;fill-opacity:0.7;stroke:#0000ff;stroke-opacity:0.7;" x="243.597002" xlink:href="#m933f740d67" y="241.383167"/>
     <use style="fill:#0000ff;fill-opacity:0.7;stroke:#0000ff;stroke-opacity:0.7;" x="246.988455" xlink:href="#m933f740d67" y="242.126143"/>
     <use style="fill:#0000ff;fill-opacity:0.7;stroke:#0000ff;stroke-opacity:0.7;" x="249.146653" xlink:href="#m933f740d67" y="242.653559"/>
     <use style="fill:#0000ff;fill-opacity:0.7;stroke:#0000ff;stroke-opacity:0.7;" x="251.998556" xlink:href="#m933f740d67" y="243.359268"/>
     <use style="fill:#0000ff;fill-opacity:0.7;stroke:#0000ff;stroke-opacity:0.7;" x="253.694283" xlink:href="#m933f740d67" y="243.58888"/>
     <use style="fill:#0000ff;fill-opacity:0.7;stroke:#0000ff;stroke-opacity:0.7;" x="256.006637" xlink:href="#m933f740d67" y="244.242772"/>
     <use style="fill:#0000ff;fill-opacity:0.7;stroke:#0000ff;stroke-opacity:0.7;" x="257.933599" xlink:href="#m933f740d67" y="244.69383"/>
     <use style="fill:#0000ff;fill-opacity:0.7;stroke:#0000ff;stroke-opacity:0.7;" x="260.323032" xlink:href="#m933f740d67" y="245.592092"/>
     <use style="fill:#0000ff;fill-opacity:0.7;stroke:#0000ff;stroke-opacity:0.7;" x="262.635386" xlink:href="#m933f740d67" y="245.843716"/>
     <use style="fill:#0000ff;fill-opacity:0.7;stroke:#0000ff;stroke-opacity:0.7;" x="265.718525" xlink:href="#m933f740d67" y="246.065079"/>
     <use style="fill:#0000ff;fill-opacity:0.7;stroke:#0000ff;stroke-opacity:0.7;" x="267.722566" xlink:href="#m933f740d67" y="247.160039"/>
     <use style="fill:#0000ff;fill-opacity:0.7;stroke:#0000ff;stroke-opacity:0.7;" x="270.882783" xlink:href="#m933f740d67" y="247.592858"/>
     <use style="fill:#0000ff;fill-opacity:0.7;stroke:#0000ff;stroke-opacity:0.7;" x="272.424353" xlink:href="#m933f740d67" y="247.947454"/>
     <use style="fill:#0000ff;fill-opacity:0.7;stroke:#0000ff;stroke-opacity:0.7;" x="275.507492" xlink:href="#m933f740d67" y="248.782125"/>
     <use style="fill:#0000ff;fill-opacity:0.7;stroke:#0000ff;stroke-opacity:0.7;" x="277.588611" xlink:href="#m933f740d67" y="249.230987"/>
     <use style="fill:#0000ff;fill-opacity:0.7;stroke:#0000ff;stroke-opacity:0.7;" x="279.284337" xlink:href="#m933f740d67" y="249.695766"/>
     <use style="fill:#0000ff;fill-opacity:0.7;stroke:#0000ff;stroke-opacity:0.7;" x="281.596691" xlink:href="#m933f740d67" y="250.025614"/>
     <use style="fill:#0000ff;fill-opacity:0.7;stroke:#0000ff;stroke-opacity:0.7;" x="284.294438" xlink:href="#m933f740d67" y="250.424855"/>
     <use style="fill:#0000ff;fill-opacity:0.7;stroke:#0000ff;stroke-opacity:0.7;" x="287.300499" xlink:href="#m933f740d67" y="250.866586"/>
     <use style="fill:#0000ff;fill-opacity:0.7;stroke:#0000ff;stroke-opacity:0.7;" x="289.998245" xlink:href="#m933f740d67" y="251.466091"/>
     <use style="fill:#0000ff;fill-opacity:0.7;stroke:#0000ff;stroke-opacity:0.7;" x="293.775091" xlink:href="#m933f740d67" y="252.228384"/>
     <use style="fill:#0000ff;fill-opacity:0.7;stroke:#0000ff;stroke-opacity:0.7;" x="293.466777" xlink:href="#m933f740d67" y="252.306566"/>
     <use style="fill:#0000ff;fill-opacity:0.7;stroke:#0000ff;stroke-opacity:0.7;" x="296.781151" xlink:href="#m933f740d67" y="253.019115"/>
     <use style="fill:#0000ff;fill-opacity:0.7;stroke:#0000ff;stroke-opacity:0.7;" x="299.324741" xlink:href="#m933f740d67" y="253.115205"/>
     <use style="fill:#0000ff;fill-opacity:0.7;stroke:#0000ff;stroke-opacity:0.7;" x="301.40586" xlink:href="#m933f740d67" y="253.606598"/>
     <use style="fill:#0000ff;fill-opacity:0.7;stroke:#0000ff;stroke-opacity:0.7;" x="303.255743" xlink:href="#m933f740d67" y="253.964675"/>
     <use style="fill:#0000ff;fill-opacity:0.7;stroke:#0000ff;stroke-opacity:0.7;" x="305.259784" xlink:href="#m933f740d67" y="254.394758"/>
     <use style="fill:#0000ff;fill-opacity:0.7;stroke:#0000ff;stroke-opacity:0.7;" x="308.420001" xlink:href="#m933f740d67" y="254.753789"/>
     <use style="fill:#0000ff;fill-opacity:0.7;stroke:#0000ff;stroke-opacity:0.7;" x="309.036629" xlink:href="#m933f740d67" y="255.144905"/>
     <use style="fill:#0000ff;fill-opacity:0.7;stroke:#0000ff;stroke-opacity:0.7;" x="312.736396" xlink:href="#m933f740d67" y="255.649729"/>
     <use style="fill:#0000ff;fill-opacity:0.7;stroke:#0000ff;stroke-opacity:0.7;" x="315.973692" xlink:href="#m933f740d67" y="256.170181"/>
     <use style="fill:#0000ff;fill-opacity:0.7;stroke:#0000ff;stroke-opacity:0.7;" x="317.284026" xlink:href="#m933f740d67" y="256.599228"/>
     <use style="fill:#0000ff;fill-opacity:0.7;stroke:#0000ff;stroke-opacity:0.7;" x="320.444244" xlink:href="#m933f740d67" y="257.0039"/>
     <use style="fill:#0000ff;fill-opacity:0.7;stroke:#0000ff;stroke-opacity:0.7;" x="322.525363" xlink:href="#m933f740d67" y="257.367656"/>
     <use style="fill:#0000ff;fill-opacity:0.7;stroke:#0000ff;stroke-opacity:0.7;" x="325.068953" xlink:href="#m933f740d67" y="257.732947"/>
     <use style="fill:#0000ff;fill-opacity:0.7;stroke:#0000ff;stroke-opacity:0.7;" x="326.533444" xlink:href="#m933f740d67" y="258.038834"/>
     <use style="fill:#0000ff;fill-opacity:0.7;stroke:#0000ff;stroke-opacity:0.7;" x="328.999955" xlink:href="#m933f740d67" y="258.435879"/>
     <use style="fill:#0000ff;fill-opacity:0.7;stroke:#0000ff;stroke-opacity:0.7;" x="331.466466" xlink:href="#m933f740d67" y="258.819699"/>
     <use style="fill:#0000ff;fill-opacity:0.7;stroke:#0000ff;stroke-opacity:0.7;" x="333.239271" xlink:href="#m933f740d67" y="259.076629"/>
     <use style="fill:#0000ff;fill-opacity:0.7;stroke:#0000ff;stroke-opacity:0.7;" x="336.707803" xlink:href="#m933f740d67" y="259.454812"/>
     <use style="fill:#0000ff;fill-opacity:0.7;stroke:#0000ff;stroke-opacity:0.7;" x="338.480608" xlink:href="#m933f740d67" y="259.87963"/>
     <use style="fill:#0000ff;fill-opacity:0.7;stroke:#0000ff;stroke-opacity:0.7;" x="340.176334" xlink:href="#m933f740d67" y="260.225272"/>
     <use style="fill:#0000ff;fill-opacity:0.7;stroke:#0000ff;stroke-opacity:0.7;" x="344.261493" xlink:href="#m933f740d67" y="260.587495"/>
     <use style="fill:#0000ff;fill-opacity:0.7;stroke:#0000ff;stroke-opacity:0.7;" x="345.95722" xlink:href="#m933f740d67" y="260.792691"/>
     <use style="fill:#0000ff;fill-opacity:0.7;stroke:#0000ff;stroke-opacity:0.7;" x="348.115417" xlink:href="#m933f740d67" y="261.204368"/>
     <use style="fill:#0000ff;fill-opacity:0.7;stroke:#0000ff;stroke-opacity:0.7;" x="350.736085" xlink:href="#m933f740d67" y="261.341912"/>
     <use style="fill:#0000ff;fill-opacity:0.7;stroke:#0000ff;stroke-opacity:0.7;" x="352.046419" xlink:href="#m933f740d67" y="261.723743"/>
     <use style="fill:#0000ff;fill-opacity:0.7;stroke:#0000ff;stroke-opacity:0.7;" x="354.975402" xlink:href="#m933f740d67" y="261.965999"/>
     <use style="fill:#0000ff;fill-opacity:0.7;stroke:#0000ff;stroke-opacity:0.7;" x="356.979442" xlink:href="#m933f740d67" y="262.308904"/>
     <use style="fill:#0000ff;fill-opacity:0.7;stroke:#0000ff;stroke-opacity:0.7;" x="360.293817" xlink:href="#m933f740d67" y="262.530682"/>
     <use style="fill:#0000ff;fill-opacity:0.7;stroke:#0000ff;stroke-opacity:0.7;" x="360.370895" xlink:href="#m933f740d67" y="262.67747"/>
     <use style="fill:#0000ff;fill-opacity:0.7;stroke:#0000ff;stroke-opacity:0.7;" x="365.149761" xlink:href="#m933f740d67" y="262.995213"/>
     <use style="fill:#0000ff;fill-opacity:0.7;stroke:#0000ff;stroke-opacity:0.7;" x="366.151781" xlink:href="#m933f740d67" y="263.311298"/>
     <use style="fill:#0000ff;fill-opacity:0.7;stroke:#0000ff;stroke-opacity:0.7;" x="368.2329" xlink:href="#m933f740d67" y="263.412569"/>
     <use style="fill:#0000ff;fill-opacity:0.7;stroke:#0000ff;stroke-opacity:0.7;" x="372.009745" xlink:href="#m933f740d67" y="263.516328"/>
     <use style="fill:#0000ff;fill-opacity:0.7;stroke:#0000ff;stroke-opacity:0.7;" x="373.628393" xlink:href="#m933f740d67" y="263.748345"/>
     <use style="fill:#0000ff;fill-opacity:0.7;stroke:#0000ff;stroke-opacity:0.7;" x="375.32412" xlink:href="#m933f740d67" y="264.359954"/>
     <use style="fill:#0000ff;fill-opacity:0.7;stroke:#0000ff;stroke-opacity:0.7;" x="377.405238" xlink:href="#m933f740d67" y="264.492108"/>
     <use style="fill:#0000ff;fill-opacity:0.7;stroke:#0000ff;stroke-opacity:0.7;" x="381.490398" xlink:href="#m933f740d67" y="264.716"/>
    </g>
   </g>
   <g id="patch_3">
    <path d="M 40.603125 276.812 
L 40.603125 10.7 
" style="fill:none;stroke:#000000;stroke-linecap:square;stroke-linejoin:miter;stroke-width:0.8;"/>
   </g>
   <g id="patch_4">
    <path d="M 397.723125 276.812 
L 397.723125 10.7 
" style="fill:none;stroke:#000000;stroke-linecap:square;stroke-linejoin:miter;stroke-width:0.8;"/>
   </g>
   <g id="patch_5">
    <path d="M 40.603125 276.812 
L 397.723125 276.812 
" style="fill:none;stroke:#000000;stroke-linecap:square;stroke-linejoin:miter;stroke-width:0.8;"/>
   </g>
   <g id="patch_6">
    <path d="M 40.603125 10.7 
L 397.723125 10.7 
" style="fill:none;stroke:#000000;stroke-linecap:square;stroke-linejoin:miter;stroke-width:0.8;"/>
   </g>
   <g id="legend_1">
    <g id="patch_7">
     <path d="M 47.603125 33.378125 
L 108.026563 33.378125 
Q 110.026563 33.378125 110.026563 31.378125 
L 110.026563 17.7 
Q 110.026563 15.7 108.026563 15.7 
L 47.603125 15.7 
Q 45.603125 15.7 45.603125 17.7 
L 45.603125 31.378125 
Q 45.603125 33.378125 47.603125 33.378125 
z
" style="fill:#ffffff;opacity:0.8;stroke:#cccccc;stroke-linejoin:miter;"/>
    </g>
    <g id="line2d_32"/>
    <g id="line2d_33">
     <g>
      <use style="fill:#0000ff;fill-opacity:0.7;stroke:#0000ff;stroke-opacity:0.7;" x="59.603125" xlink:href="#m933f740d67" y="23.798438"/>
     </g>
    </g>
    <g id="text_19">
     <!-- V=1V -->
     <defs>
      <path d="M 28.609375 0 
L 0.78125 72.90625 
L 11.078125 72.90625 
L 34.1875 11.53125 
L 57.328125 72.90625 
L 67.578125 72.90625 
L 39.796875 0 
z
" id="DejaVuSans-86"/>
      <path d="M 10.59375 45.40625 
L 73.1875 45.40625 
L 73.1875 37.203125 
L 10.59375 37.203125 
z
M 10.59375 25.484375 
L 73.1875 25.484375 
L 73.1875 17.1875 
L 10.59375 17.1875 
z
" id="DejaVuSans-61"/>
     </defs>
     <g transform="translate(77.603125 27.298438)scale(0.1 -0.1)">
      <use xlink:href="#DejaVuSans-86"/>
      <use x="68.408203" xlink:href="#DejaVuSans-61"/>
      <use x="152.197266" xlink:href="#DejaVuSans-49"/>
      <use x="215.820312" xlink:href="#DejaVuSans-86"/>
     </g>
    </g>
   </g>
  </g>
 </g>
 <defs>
  <clipPath id="p7c31e6e983">
   <rect height="266.112" width="357.12" x="40.603125" y="10.7"/>
  </clipPath>
 </defs>
</svg>
