<?xml version="1.0" encoding="utf-8" standalone="no"?>
<!DOCTYPE svg PUBLIC "-//W3C//DTD SVG 1.1//EN"
  "http://www.w3.org/Graphics/SVG/1.1/DTD/svg11.dtd">
<!-- Created with matplotlib (https://matplotlib.org/) -->
<svg height="314.36825pt" version="1.1" viewBox="0 0 411.60125 314.36825" width="411.60125pt" xmlns="http://www.w3.org/2000/svg" xmlns:xlink="http://www.w3.org/1999/xlink">
 <defs>
  <style type="text/css">
*{stroke-linecap:butt;stroke-linejoin:round;}
  </style>
 </defs>
 <g id="figure_1">
  <g id="patch_1">
   <path d="M 0 314.36825 
L 411.60125 314.36825 
L 411.60125 0 
L 0 0 
z
" style="fill:#ffffff;"/>
  </g>
  <g id="axes_1">
   <g id="patch_2">
    <path d="M 43.78125 276.812 
L 400.90125 276.812 
L 400.90125 10.7 
L 43.78125 10.7 
z
" style="fill:#ffffff;"/>
   </g>
   <g id="matplotlib.axis_1">
    <g id="xtick_1">
     <g id="line2d_1">
      <path clip-path="url(#p4403aa7862)" d="M 54.72266 276.812 
L 54.72266 10.7 
" style="fill:none;stroke:#808080;stroke-dasharray:0.8,1.32;stroke-dashoffset:0;stroke-width:0.8;"/>
     </g>
     <g id="line2d_2">
      <defs>
       <path d="M 0 0 
L 0 3.5 
" id="ma1e04b658c" style="stroke:#000000;stroke-width:0.8;"/>
      </defs>
      <g>
       <use style="stroke:#000000;stroke-width:0.8;" x="54.72266" xlink:href="#ma1e04b658c" y="276.812"/>
      </g>
     </g>
     <g id="text_1">
      <!-- 0.2 -->
      <defs>
       <path d="M 31.78125 66.40625 
Q 24.171875 66.40625 20.328125 58.90625 
Q 16.5 51.421875 16.5 36.375 
Q 16.5 21.390625 20.328125 13.890625 
Q 24.171875 6.390625 31.78125 6.390625 
Q 39.453125 6.390625 43.28125 13.890625 
Q 47.125 21.390625 47.125 36.375 
Q 47.125 51.421875 43.28125 58.90625 
Q 39.453125 66.40625 31.78125 66.40625 
z
M 31.78125 74.21875 
Q 44.046875 74.21875 50.515625 64.515625 
Q 56.984375 54.828125 56.984375 36.375 
Q 56.984375 17.96875 50.515625 8.265625 
Q 44.046875 -1.421875 31.78125 -1.421875 
Q 19.53125 -1.421875 13.0625 8.265625 
Q 6.59375 17.96875 6.59375 36.375 
Q 6.59375 54.828125 13.0625 64.515625 
Q 19.53125 74.21875 31.78125 74.21875 
z
" id="DejaVuSans-48"/>
       <path d="M 10.6875 12.40625 
L 21 12.40625 
L 21 0 
L 10.6875 0 
z
" id="DejaVuSans-46"/>
       <path d="M 19.1875 8.296875 
L 53.609375 8.296875 
L 53.609375 0 
L 7.328125 0 
L 7.328125 8.296875 
Q 12.9375 14.109375 22.625 23.890625 
Q 32.328125 33.6875 34.8125 36.53125 
Q 39.546875 41.84375 41.421875 45.53125 
Q 43.3125 49.21875 43.3125 52.78125 
Q 43.3125 58.59375 39.234375 62.25 
Q 35.15625 65.921875 28.609375 65.921875 
Q 23.96875 65.921875 18.8125 64.3125 
Q 13.671875 62.703125 7.8125 59.421875 
L 7.8125 69.390625 
Q 13.765625 71.78125 18.9375 73 
Q 24.125 74.21875 28.421875 74.21875 
Q 39.75 74.21875 46.484375 68.546875 
Q 53.21875 62.890625 53.21875 53.421875 
Q 53.21875 48.921875 51.53125 44.890625 
Q 49.859375 40.875 45.40625 35.40625 
Q 44.1875 33.984375 37.640625 27.21875 
Q 31.109375 20.453125 19.1875 8.296875 
z
" id="DejaVuSans-50"/>
      </defs>
      <g transform="translate(46.771098 291.410438)scale(0.1 -0.1)">
       <use xlink:href="#DejaVuSans-48"/>
       <use x="63.623047" xlink:href="#DejaVuSans-46"/>
       <use x="95.410156" xlink:href="#DejaVuSans-50"/>
      </g>
     </g>
    </g>
    <g id="xtick_2">
     <g id="line2d_3">
      <path clip-path="url(#p4403aa7862)" d="M 101.767629 276.812 
L 101.767629 10.7 
" style="fill:none;stroke:#808080;stroke-dasharray:0.8,1.32;stroke-dashoffset:0;stroke-width:0.8;"/>
     </g>
     <g id="line2d_4">
      <g>
       <use style="stroke:#000000;stroke-width:0.8;" x="101.767629" xlink:href="#ma1e04b658c" y="276.812"/>
      </g>
     </g>
     <g id="text_2">
      <!-- 0.4 -->
      <defs>
       <path d="M 37.796875 64.3125 
L 12.890625 25.390625 
L 37.796875 25.390625 
z
M 35.203125 72.90625 
L 47.609375 72.90625 
L 47.609375 25.390625 
L 58.015625 25.390625 
L 58.015625 17.1875 
L 47.609375 17.1875 
L 47.609375 0 
L 37.796875 0 
L 37.796875 17.1875 
L 4.890625 17.1875 
L 4.890625 26.703125 
z
" id="DejaVuSans-52"/>
      </defs>
      <g transform="translate(93.816067 291.410438)scale(0.1 -0.1)">
       <use xlink:href="#DejaVuSans-48"/>
       <use x="63.623047" xlink:href="#DejaVuSans-46"/>
       <use x="95.410156" xlink:href="#DejaVuSans-52"/>
      </g>
     </g>
    </g>
    <g id="xtick_3">
     <g id="line2d_5">
      <path clip-path="url(#p4403aa7862)" d="M 148.812598 276.812 
L 148.812598 10.7 
" style="fill:none;stroke:#808080;stroke-dasharray:0.8,1.32;stroke-dashoffset:0;stroke-width:0.8;"/>
     </g>
     <g id="line2d_6">
      <g>
       <use style="stroke:#000000;stroke-width:0.8;" x="148.812598" xlink:href="#ma1e04b658c" y="276.812"/>
      </g>
     </g>
     <g id="text_3">
      <!-- 0.6 -->
      <defs>
       <path d="M 33.015625 40.375 
Q 26.375 40.375 22.484375 35.828125 
Q 18.609375 31.296875 18.609375 23.390625 
Q 18.609375 15.53125 22.484375 10.953125 
Q 26.375 6.390625 33.015625 6.390625 
Q 39.65625 6.390625 43.53125 10.953125 
Q 47.40625 15.53125 47.40625 23.390625 
Q 47.40625 31.296875 43.53125 35.828125 
Q 39.65625 40.375 33.015625 40.375 
z
M 52.59375 71.296875 
L 52.59375 62.3125 
Q 48.875 64.0625 45.09375 64.984375 
Q 41.3125 65.921875 37.59375 65.921875 
Q 27.828125 65.921875 22.671875 59.328125 
Q 17.53125 52.734375 16.796875 39.40625 
Q 19.671875 43.65625 24.015625 45.921875 
Q 28.375 48.1875 33.59375 48.1875 
Q 44.578125 48.1875 50.953125 41.515625 
Q 57.328125 34.859375 57.328125 23.390625 
Q 57.328125 12.15625 50.6875 5.359375 
Q 44.046875 -1.421875 33.015625 -1.421875 
Q 20.359375 -1.421875 13.671875 8.265625 
Q 6.984375 17.96875 6.984375 36.375 
Q 6.984375 53.65625 15.1875 63.9375 
Q 23.390625 74.21875 37.203125 74.21875 
Q 40.921875 74.21875 44.703125 73.484375 
Q 48.484375 72.75 52.59375 71.296875 
z
" id="DejaVuSans-54"/>
      </defs>
      <g transform="translate(140.861036 291.410438)scale(0.1 -0.1)">
       <use xlink:href="#DejaVuSans-48"/>
       <use x="63.623047" xlink:href="#DejaVuSans-46"/>
       <use x="95.410156" xlink:href="#DejaVuSans-54"/>
      </g>
     </g>
    </g>
    <g id="xtick_4">
     <g id="line2d_7">
      <path clip-path="url(#p4403aa7862)" d="M 195.857567 276.812 
L 195.857567 10.7 
" style="fill:none;stroke:#808080;stroke-dasharray:0.8,1.32;stroke-dashoffset:0;stroke-width:0.8;"/>
     </g>
     <g id="line2d_8">
      <g>
       <use style="stroke:#000000;stroke-width:0.8;" x="195.857567" xlink:href="#ma1e04b658c" y="276.812"/>
      </g>
     </g>
     <g id="text_4">
      <!-- 0.8 -->
      <defs>
       <path d="M 31.78125 34.625 
Q 24.75 34.625 20.71875 30.859375 
Q 16.703125 27.09375 16.703125 20.515625 
Q 16.703125 13.921875 20.71875 10.15625 
Q 24.75 6.390625 31.78125 6.390625 
Q 38.8125 6.390625 42.859375 10.171875 
Q 46.921875 13.96875 46.921875 20.515625 
Q 46.921875 27.09375 42.890625 30.859375 
Q 38.875 34.625 31.78125 34.625 
z
M 21.921875 38.8125 
Q 15.578125 40.375 12.03125 44.71875 
Q 8.5 49.078125 8.5 55.328125 
Q 8.5 64.0625 14.71875 69.140625 
Q 20.953125 74.21875 31.78125 74.21875 
Q 42.671875 74.21875 48.875 69.140625 
Q 55.078125 64.0625 55.078125 55.328125 
Q 55.078125 49.078125 51.53125 44.71875 
Q 48 40.375 41.703125 38.8125 
Q 48.828125 37.15625 52.796875 32.3125 
Q 56.78125 27.484375 56.78125 20.515625 
Q 56.78125 9.90625 50.3125 4.234375 
Q 43.84375 -1.421875 31.78125 -1.421875 
Q 19.734375 -1.421875 13.25 4.234375 
Q 6.78125 9.90625 6.78125 20.515625 
Q 6.78125 27.484375 10.78125 32.3125 
Q 14.796875 37.15625 21.921875 38.8125 
z
M 18.3125 54.390625 
Q 18.3125 48.734375 21.84375 45.5625 
Q 25.390625 42.390625 31.78125 42.390625 
Q 38.140625 42.390625 41.71875 45.5625 
Q 45.3125 48.734375 45.3125 54.390625 
Q 45.3125 60.0625 41.71875 63.234375 
Q 38.140625 66.40625 31.78125 66.40625 
Q 25.390625 66.40625 21.84375 63.234375 
Q 18.3125 60.0625 18.3125 54.390625 
z
" id="DejaVuSans-56"/>
      </defs>
      <g transform="translate(187.906005 291.410438)scale(0.1 -0.1)">
       <use xlink:href="#DejaVuSans-48"/>
       <use x="63.623047" xlink:href="#DejaVuSans-46"/>
       <use x="95.410156" xlink:href="#DejaVuSans-56"/>
      </g>
     </g>
    </g>
    <g id="xtick_5">
     <g id="line2d_9">
      <path clip-path="url(#p4403aa7862)" d="M 242.902536 276.812 
L 242.902536 10.7 
" style="fill:none;stroke:#808080;stroke-dasharray:0.8,1.32;stroke-dashoffset:0;stroke-width:0.8;"/>
     </g>
     <g id="line2d_10">
      <g>
       <use style="stroke:#000000;stroke-width:0.8;" x="242.902536" xlink:href="#ma1e04b658c" y="276.812"/>
      </g>
     </g>
     <g id="text_5">
      <!-- 1.0 -->
      <defs>
       <path d="M 12.40625 8.296875 
L 28.515625 8.296875 
L 28.515625 63.921875 
L 10.984375 60.40625 
L 10.984375 69.390625 
L 28.421875 72.90625 
L 38.28125 72.90625 
L 38.28125 8.296875 
L 54.390625 8.296875 
L 54.390625 0 
L 12.40625 0 
z
" id="DejaVuSans-49"/>
      </defs>
      <g transform="translate(234.950973 291.410438)scale(0.1 -0.1)">
       <use xlink:href="#DejaVuSans-49"/>
       <use x="63.623047" xlink:href="#DejaVuSans-46"/>
       <use x="95.410156" xlink:href="#DejaVuSans-48"/>
      </g>
     </g>
    </g>
    <g id="xtick_6">
     <g id="line2d_11">
      <path clip-path="url(#p4403aa7862)" d="M 289.947505 276.812 
L 289.947505 10.7 
" style="fill:none;stroke:#808080;stroke-dasharray:0.8,1.32;stroke-dashoffset:0;stroke-width:0.8;"/>
     </g>
     <g id="line2d_12">
      <g>
       <use style="stroke:#000000;stroke-width:0.8;" x="289.947505" xlink:href="#ma1e04b658c" y="276.812"/>
      </g>
     </g>
     <g id="text_6">
      <!-- 1.2 -->
      <g transform="translate(281.995942 291.410438)scale(0.1 -0.1)">
       <use xlink:href="#DejaVuSans-49"/>
       <use x="63.623047" xlink:href="#DejaVuSans-46"/>
       <use x="95.410156" xlink:href="#DejaVuSans-50"/>
      </g>
     </g>
    </g>
    <g id="xtick_7">
     <g id="line2d_13">
      <path clip-path="url(#p4403aa7862)" d="M 336.992474 276.812 
L 336.992474 10.7 
" style="fill:none;stroke:#808080;stroke-dasharray:0.8,1.32;stroke-dashoffset:0;stroke-width:0.8;"/>
     </g>
     <g id="line2d_14">
      <g>
       <use style="stroke:#000000;stroke-width:0.8;" x="336.992474" xlink:href="#ma1e04b658c" y="276.812"/>
      </g>
     </g>
     <g id="text_7">
      <!-- 1.4 -->
      <g transform="translate(329.040911 291.410438)scale(0.1 -0.1)">
       <use xlink:href="#DejaVuSans-49"/>
       <use x="63.623047" xlink:href="#DejaVuSans-46"/>
       <use x="95.410156" xlink:href="#DejaVuSans-52"/>
      </g>
     </g>
    </g>
    <g id="xtick_8">
     <g id="line2d_15">
      <path clip-path="url(#p4403aa7862)" d="M 384.037443 276.812 
L 384.037443 10.7 
" style="fill:none;stroke:#808080;stroke-dasharray:0.8,1.32;stroke-dashoffset:0;stroke-width:0.8;"/>
     </g>
     <g id="line2d_16">
      <g>
       <use style="stroke:#000000;stroke-width:0.8;" x="384.037443" xlink:href="#ma1e04b658c" y="276.812"/>
      </g>
     </g>
     <g id="text_8">
      <!-- 1.6 -->
      <g transform="translate(376.08588 291.410438)scale(0.1 -0.1)">
       <use xlink:href="#DejaVuSans-49"/>
       <use x="63.623047" xlink:href="#DejaVuSans-46"/>
       <use x="95.410156" xlink:href="#DejaVuSans-54"/>
      </g>
     </g>
    </g>
    <g id="text_9">
     <!-- Frequency (Hz) -->
     <defs>
      <path d="M 9.8125 72.90625 
L 51.703125 72.90625 
L 51.703125 64.59375 
L 19.671875 64.59375 
L 19.671875 43.109375 
L 48.578125 43.109375 
L 48.578125 34.8125 
L 19.671875 34.8125 
L 19.671875 0 
L 9.8125 0 
z
" id="DejaVuSans-70"/>
      <path d="M 41.109375 46.296875 
Q 39.59375 47.171875 37.8125 47.578125 
Q 36.03125 48 33.890625 48 
Q 26.265625 48 22.1875 43.046875 
Q 18.109375 38.09375 18.109375 28.8125 
L 18.109375 0 
L 9.078125 0 
L 9.078125 54.6875 
L 18.109375 54.6875 
L 18.109375 46.1875 
Q 20.953125 51.171875 25.484375 53.578125 
Q 30.03125 56 36.53125 56 
Q 37.453125 56 38.578125 55.875 
Q 39.703125 55.765625 41.0625 55.515625 
z
" id="DejaVuSans-114"/>
      <path d="M 56.203125 29.59375 
L 56.203125 25.203125 
L 14.890625 25.203125 
Q 15.484375 15.921875 20.484375 11.0625 
Q 25.484375 6.203125 34.421875 6.203125 
Q 39.59375 6.203125 44.453125 7.46875 
Q 49.3125 8.734375 54.109375 11.28125 
L 54.109375 2.78125 
Q 49.265625 0.734375 44.1875 -0.34375 
Q 39.109375 -1.421875 33.890625 -1.421875 
Q 20.796875 -1.421875 13.15625 6.1875 
Q 5.515625 13.8125 5.515625 26.8125 
Q 5.515625 40.234375 12.765625 48.109375 
Q 20.015625 56 32.328125 56 
Q 43.359375 56 49.78125 48.890625 
Q 56.203125 41.796875 56.203125 29.59375 
z
M 47.21875 32.234375 
Q 47.125 39.59375 43.09375 43.984375 
Q 39.0625 48.390625 32.421875 48.390625 
Q 24.90625 48.390625 20.390625 44.140625 
Q 15.875 39.890625 15.1875 32.171875 
z
" id="DejaVuSans-101"/>
      <path d="M 14.796875 27.296875 
Q 14.796875 17.390625 18.875 11.75 
Q 22.953125 6.109375 30.078125 6.109375 
Q 37.203125 6.109375 41.296875 11.75 
Q 45.40625 17.390625 45.40625 27.296875 
Q 45.40625 37.203125 41.296875 42.84375 
Q 37.203125 48.484375 30.078125 48.484375 
Q 22.953125 48.484375 18.875 42.84375 
Q 14.796875 37.203125 14.796875 27.296875 
z
M 45.40625 8.203125 
Q 42.578125 3.328125 38.25 0.953125 
Q 33.9375 -1.421875 27.875 -1.421875 
Q 17.96875 -1.421875 11.734375 6.484375 
Q 5.515625 14.40625 5.515625 27.296875 
Q 5.515625 40.1875 11.734375 48.09375 
Q 17.96875 56 27.875 56 
Q 33.9375 56 38.25 53.625 
Q 42.578125 51.265625 45.40625 46.390625 
L 45.40625 54.6875 
L 54.390625 54.6875 
L 54.390625 -20.796875 
L 45.40625 -20.796875 
z
" id="DejaVuSans-113"/>
      <path d="M 8.5 21.578125 
L 8.5 54.6875 
L 17.484375 54.6875 
L 17.484375 21.921875 
Q 17.484375 14.15625 20.5 10.265625 
Q 23.53125 6.390625 29.59375 6.390625 
Q 36.859375 6.390625 41.078125 11.03125 
Q 45.3125 15.671875 45.3125 23.6875 
L 45.3125 54.6875 
L 54.296875 54.6875 
L 54.296875 0 
L 45.3125 0 
L 45.3125 8.40625 
Q 42.046875 3.421875 37.71875 1 
Q 33.40625 -1.421875 27.6875 -1.421875 
Q 18.265625 -1.421875 13.375 4.4375 
Q 8.5 10.296875 8.5 21.578125 
z
M 31.109375 56 
z
" id="DejaVuSans-117"/>
      <path d="M 54.890625 33.015625 
L 54.890625 0 
L 45.90625 0 
L 45.90625 32.71875 
Q 45.90625 40.484375 42.875 44.328125 
Q 39.84375 48.1875 33.796875 48.1875 
Q 26.515625 48.1875 22.3125 43.546875 
Q 18.109375 38.921875 18.109375 30.90625 
L 18.109375 0 
L 9.078125 0 
L 9.078125 54.6875 
L 18.109375 54.6875 
L 18.109375 46.1875 
Q 21.34375 51.125 25.703125 53.5625 
Q 30.078125 56 35.796875 56 
Q 45.21875 56 50.046875 50.171875 
Q 54.890625 44.34375 54.890625 33.015625 
z
" id="DejaVuSans-110"/>
      <path d="M 48.78125 52.59375 
L 48.78125 44.1875 
Q 44.96875 46.296875 41.140625 47.34375 
Q 37.3125 48.390625 33.40625 48.390625 
Q 24.65625 48.390625 19.8125 42.84375 
Q 14.984375 37.3125 14.984375 27.296875 
Q 14.984375 17.28125 19.8125 11.734375 
Q 24.65625 6.203125 33.40625 6.203125 
Q 37.3125 6.203125 41.140625 7.25 
Q 44.96875 8.296875 48.78125 10.40625 
L 48.78125 2.09375 
Q 45.015625 0.34375 40.984375 -0.53125 
Q 36.96875 -1.421875 32.421875 -1.421875 
Q 20.0625 -1.421875 12.78125 6.34375 
Q 5.515625 14.109375 5.515625 27.296875 
Q 5.515625 40.671875 12.859375 48.328125 
Q 20.21875 56 33.015625 56 
Q 37.15625 56 41.109375 55.140625 
Q 45.0625 54.296875 48.78125 52.59375 
z
" id="DejaVuSans-99"/>
      <path d="M 32.171875 -5.078125 
Q 28.375 -14.84375 24.75 -17.8125 
Q 21.140625 -20.796875 15.09375 -20.796875 
L 7.90625 -20.796875 
L 7.90625 -13.28125 
L 13.1875 -13.28125 
Q 16.890625 -13.28125 18.9375 -11.515625 
Q 21 -9.765625 23.484375 -3.21875 
L 25.09375 0.875 
L 2.984375 54.6875 
L 12.5 54.6875 
L 29.59375 11.921875 
L 46.6875 54.6875 
L 56.203125 54.6875 
z
" id="DejaVuSans-121"/>
      <path id="DejaVuSans-32"/>
      <path d="M 31 75.875 
Q 24.46875 64.65625 21.28125 53.65625 
Q 18.109375 42.671875 18.109375 31.390625 
Q 18.109375 20.125 21.3125 9.0625 
Q 24.515625 -2 31 -13.1875 
L 23.1875 -13.1875 
Q 15.875 -1.703125 12.234375 9.375 
Q 8.59375 20.453125 8.59375 31.390625 
Q 8.59375 42.28125 12.203125 53.3125 
Q 15.828125 64.359375 23.1875 75.875 
z
" id="DejaVuSans-40"/>
      <path d="M 9.8125 72.90625 
L 19.671875 72.90625 
L 19.671875 43.015625 
L 55.515625 43.015625 
L 55.515625 72.90625 
L 65.375 72.90625 
L 65.375 0 
L 55.515625 0 
L 55.515625 34.71875 
L 19.671875 34.71875 
L 19.671875 0 
L 9.8125 0 
z
" id="DejaVuSans-72"/>
      <path d="M 5.515625 54.6875 
L 48.1875 54.6875 
L 48.1875 46.484375 
L 14.40625 7.171875 
L 48.1875 7.171875 
L 48.1875 0 
L 4.296875 0 
L 4.296875 8.203125 
L 38.09375 47.515625 
L 5.515625 47.515625 
z
" id="DejaVuSans-122"/>
      <path d="M 8.015625 75.875 
L 15.828125 75.875 
Q 23.140625 64.359375 26.78125 53.3125 
Q 30.421875 42.28125 30.421875 31.390625 
Q 30.421875 20.453125 26.78125 9.375 
Q 23.140625 -1.703125 15.828125 -13.1875 
L 8.015625 -13.1875 
Q 14.5 -2 17.703125 9.0625 
Q 20.90625 20.125 20.90625 31.390625 
Q 20.90625 42.671875 17.703125 53.65625 
Q 14.5 64.65625 8.015625 75.875 
z
" id="DejaVuSans-41"/>
     </defs>
     <g transform="translate(184.168594 305.088562)scale(0.1 -0.1)">
      <use xlink:href="#DejaVuSans-70"/>
      <use x="57.410156" xlink:href="#DejaVuSans-114"/>
      <use x="98.492188" xlink:href="#DejaVuSans-101"/>
      <use x="160.015625" xlink:href="#DejaVuSans-113"/>
      <use x="223.492188" xlink:href="#DejaVuSans-117"/>
      <use x="286.871094" xlink:href="#DejaVuSans-101"/>
      <use x="348.394531" xlink:href="#DejaVuSans-110"/>
      <use x="411.773438" xlink:href="#DejaVuSans-99"/>
      <use x="466.753906" xlink:href="#DejaVuSans-121"/>
      <use x="525.933594" xlink:href="#DejaVuSans-32"/>
      <use x="557.720703" xlink:href="#DejaVuSans-40"/>
      <use x="596.734375" xlink:href="#DejaVuSans-72"/>
      <use x="671.929688" xlink:href="#DejaVuSans-122"/>
      <use x="724.419922" xlink:href="#DejaVuSans-41"/>
     </g>
    </g>
    <g id="text_10">
     <!-- 1e8 -->
     <g transform="translate(382.023125 304.088562)scale(0.1 -0.1)">
      <use xlink:href="#DejaVuSans-49"/>
      <use x="63.623047" xlink:href="#DejaVuSans-101"/>
      <use x="125.146484" xlink:href="#DejaVuSans-56"/>
     </g>
    </g>
   </g>
   <g id="matplotlib.axis_2">
    <g id="ytick_1">
     <g id="line2d_17">
      <path clip-path="url(#p4403aa7862)" d="M 43.78125 272.154691 
L 400.90125 272.154691 
" style="fill:none;stroke:#808080;stroke-dasharray:0.8,1.32;stroke-dashoffset:0;stroke-width:0.8;"/>
     </g>
     <g id="line2d_18">
      <defs>
       <path d="M 0 0 
L -3.5 0 
" id="md32d616ad7" style="stroke:#000000;stroke-width:0.8;"/>
      </defs>
      <g>
       <use style="stroke:#000000;stroke-width:0.8;" x="43.78125" xlink:href="#md32d616ad7" y="272.154691"/>
      </g>
     </g>
     <g id="text_11">
      <!-- 0.4 -->
      <g transform="translate(20.878125 275.95391)scale(0.1 -0.1)">
       <use xlink:href="#DejaVuSans-48"/>
       <use x="63.623047" xlink:href="#DejaVuSans-46"/>
       <use x="95.410156" xlink:href="#DejaVuSans-52"/>
      </g>
     </g>
    </g>
    <g id="ytick_2">
     <g id="line2d_19">
      <path clip-path="url(#p4403aa7862)" d="M 43.78125 228.991315 
L 400.90125 228.991315 
" style="fill:none;stroke:#808080;stroke-dasharray:0.8,1.32;stroke-dashoffset:0;stroke-width:0.8;"/>
     </g>
     <g id="line2d_20">
      <g>
       <use style="stroke:#000000;stroke-width:0.8;" x="43.78125" xlink:href="#md32d616ad7" y="228.991315"/>
      </g>
     </g>
     <g id="text_12">
      <!-- 0.5 -->
      <defs>
       <path d="M 10.796875 72.90625 
L 49.515625 72.90625 
L 49.515625 64.59375 
L 19.828125 64.59375 
L 19.828125 46.734375 
Q 21.96875 47.46875 24.109375 47.828125 
Q 26.265625 48.1875 28.421875 48.1875 
Q 40.625 48.1875 47.75 41.5 
Q 54.890625 34.8125 54.890625 23.390625 
Q 54.890625 11.625 47.5625 5.09375 
Q 40.234375 -1.421875 26.90625 -1.421875 
Q 22.3125 -1.421875 17.546875 -0.640625 
Q 12.796875 0.140625 7.71875 1.703125 
L 7.71875 11.625 
Q 12.109375 9.234375 16.796875 8.0625 
Q 21.484375 6.890625 26.703125 6.890625 
Q 35.15625 6.890625 40.078125 11.328125 
Q 45.015625 15.765625 45.015625 23.390625 
Q 45.015625 31 40.078125 35.4375 
Q 35.15625 39.890625 26.703125 39.890625 
Q 22.75 39.890625 18.8125 39.015625 
Q 14.890625 38.140625 10.796875 36.28125 
z
" id="DejaVuSans-53"/>
      </defs>
      <g transform="translate(20.878125 232.790534)scale(0.1 -0.1)">
       <use xlink:href="#DejaVuSans-48"/>
       <use x="63.623047" xlink:href="#DejaVuSans-46"/>
       <use x="95.410156" xlink:href="#DejaVuSans-53"/>
      </g>
     </g>
    </g>
    <g id="ytick_3">
     <g id="line2d_21">
      <path clip-path="url(#p4403aa7862)" d="M 43.78125 185.827939 
L 400.90125 185.827939 
" style="fill:none;stroke:#808080;stroke-dasharray:0.8,1.32;stroke-dashoffset:0;stroke-width:0.8;"/>
     </g>
     <g id="line2d_22">
      <g>
       <use style="stroke:#000000;stroke-width:0.8;" x="43.78125" xlink:href="#md32d616ad7" y="185.827939"/>
      </g>
     </g>
     <g id="text_13">
      <!-- 0.6 -->
      <g transform="translate(20.878125 189.627158)scale(0.1 -0.1)">
       <use xlink:href="#DejaVuSans-48"/>
       <use x="63.623047" xlink:href="#DejaVuSans-46"/>
       <use x="95.410156" xlink:href="#DejaVuSans-54"/>
      </g>
     </g>
    </g>
    <g id="ytick_4">
     <g id="line2d_23">
      <path clip-path="url(#p4403aa7862)" d="M 43.78125 142.664564 
L 400.90125 142.664564 
" style="fill:none;stroke:#808080;stroke-dasharray:0.8,1.32;stroke-dashoffset:0;stroke-width:0.8;"/>
     </g>
     <g id="line2d_24">
      <g>
       <use style="stroke:#000000;stroke-width:0.8;" x="43.78125" xlink:href="#md32d616ad7" y="142.664564"/>
      </g>
     </g>
     <g id="text_14">
      <!-- 0.7 -->
      <defs>
       <path d="M 8.203125 72.90625 
L 55.078125 72.90625 
L 55.078125 68.703125 
L 28.609375 0 
L 18.3125 0 
L 43.21875 64.59375 
L 8.203125 64.59375 
z
" id="DejaVuSans-55"/>
      </defs>
      <g transform="translate(20.878125 146.463782)scale(0.1 -0.1)">
       <use xlink:href="#DejaVuSans-48"/>
       <use x="63.623047" xlink:href="#DejaVuSans-46"/>
       <use x="95.410156" xlink:href="#DejaVuSans-55"/>
      </g>
     </g>
    </g>
    <g id="ytick_5">
     <g id="line2d_25">
      <path clip-path="url(#p4403aa7862)" d="M 43.78125 99.501188 
L 400.90125 99.501188 
" style="fill:none;stroke:#808080;stroke-dasharray:0.8,1.32;stroke-dashoffset:0;stroke-width:0.8;"/>
     </g>
     <g id="line2d_26">
      <g>
       <use style="stroke:#000000;stroke-width:0.8;" x="43.78125" xlink:href="#md32d616ad7" y="99.501188"/>
      </g>
     </g>
     <g id="text_15">
      <!-- 0.8 -->
      <g transform="translate(20.878125 103.300406)scale(0.1 -0.1)">
       <use xlink:href="#DejaVuSans-48"/>
       <use x="63.623047" xlink:href="#DejaVuSans-46"/>
       <use x="95.410156" xlink:href="#DejaVuSans-56"/>
      </g>
     </g>
    </g>
    <g id="ytick_6">
     <g id="line2d_27">
      <path clip-path="url(#p4403aa7862)" d="M 43.78125 56.337812 
L 400.90125 56.337812 
" style="fill:none;stroke:#808080;stroke-dasharray:0.8,1.32;stroke-dashoffset:0;stroke-width:0.8;"/>
     </g>
     <g id="line2d_28">
      <g>
       <use style="stroke:#000000;stroke-width:0.8;" x="43.78125" xlink:href="#md32d616ad7" y="56.337812"/>
      </g>
     </g>
     <g id="text_16">
      <!-- 0.9 -->
      <defs>
       <path d="M 10.984375 1.515625 
L 10.984375 10.5 
Q 14.703125 8.734375 18.5 7.8125 
Q 22.3125 6.890625 25.984375 6.890625 
Q 35.75 6.890625 40.890625 13.453125 
Q 46.046875 20.015625 46.78125 33.40625 
Q 43.953125 29.203125 39.59375 26.953125 
Q 35.25 24.703125 29.984375 24.703125 
Q 19.046875 24.703125 12.671875 31.3125 
Q 6.296875 37.9375 6.296875 49.421875 
Q 6.296875 60.640625 12.9375 67.421875 
Q 19.578125 74.21875 30.609375 74.21875 
Q 43.265625 74.21875 49.921875 64.515625 
Q 56.59375 54.828125 56.59375 36.375 
Q 56.59375 19.140625 48.40625 8.859375 
Q 40.234375 -1.421875 26.421875 -1.421875 
Q 22.703125 -1.421875 18.890625 -0.6875 
Q 15.09375 0.046875 10.984375 1.515625 
z
M 30.609375 32.421875 
Q 37.25 32.421875 41.125 36.953125 
Q 45.015625 41.5 45.015625 49.421875 
Q 45.015625 57.28125 41.125 61.84375 
Q 37.25 66.40625 30.609375 66.40625 
Q 23.96875 66.40625 20.09375 61.84375 
Q 16.21875 57.28125 16.21875 49.421875 
Q 16.21875 41.5 20.09375 36.953125 
Q 23.96875 32.421875 30.609375 32.421875 
z
" id="DejaVuSans-57"/>
      </defs>
      <g transform="translate(20.878125 60.137031)scale(0.1 -0.1)">
       <use xlink:href="#DejaVuSans-48"/>
       <use x="63.623047" xlink:href="#DejaVuSans-46"/>
       <use x="95.410156" xlink:href="#DejaVuSans-57"/>
      </g>
     </g>
    </g>
    <g id="ytick_7">
     <g id="line2d_29">
      <path clip-path="url(#p4403aa7862)" d="M 43.78125 13.174436 
L 400.90125 13.174436 
" style="fill:none;stroke:#808080;stroke-dasharray:0.8,1.32;stroke-dashoffset:0;stroke-width:0.8;"/>
     </g>
     <g id="line2d_30">
      <g>
       <use style="stroke:#000000;stroke-width:0.8;" x="43.78125" xlink:href="#md32d616ad7" y="13.174436"/>
      </g>
     </g>
     <g id="text_17">
      <!-- 1.0 -->
      <g transform="translate(20.878125 16.973655)scale(0.1 -0.1)">
       <use xlink:href="#DejaVuSans-49"/>
       <use x="63.623047" xlink:href="#DejaVuSans-46"/>
       <use x="95.410156" xlink:href="#DejaVuSans-48"/>
      </g>
     </g>
    </g>
    <g id="text_18">
     <!-- Energy (J) -->
     <defs>
      <path d="M 9.8125 72.90625 
L 55.90625 72.90625 
L 55.90625 64.59375 
L 19.671875 64.59375 
L 19.671875 43.015625 
L 54.390625 43.015625 
L 54.390625 34.71875 
L 19.671875 34.71875 
L 19.671875 8.296875 
L 56.78125 8.296875 
L 56.78125 0 
L 9.8125 0 
z
" id="DejaVuSans-69"/>
      <path d="M 45.40625 27.984375 
Q 45.40625 37.75 41.375 43.109375 
Q 37.359375 48.484375 30.078125 48.484375 
Q 22.859375 48.484375 18.828125 43.109375 
Q 14.796875 37.75 14.796875 27.984375 
Q 14.796875 18.265625 18.828125 12.890625 
Q 22.859375 7.515625 30.078125 7.515625 
Q 37.359375 7.515625 41.375 12.890625 
Q 45.40625 18.265625 45.40625 27.984375 
z
M 54.390625 6.78125 
Q 54.390625 -7.171875 48.1875 -13.984375 
Q 42 -20.796875 29.203125 -20.796875 
Q 24.46875 -20.796875 20.265625 -20.09375 
Q 16.0625 -19.390625 12.109375 -17.921875 
L 12.109375 -9.1875 
Q 16.0625 -11.328125 19.921875 -12.34375 
Q 23.78125 -13.375 27.78125 -13.375 
Q 36.625 -13.375 41.015625 -8.765625 
Q 45.40625 -4.15625 45.40625 5.171875 
L 45.40625 9.625 
Q 42.625 4.78125 38.28125 2.390625 
Q 33.9375 0 27.875 0 
Q 17.828125 0 11.671875 7.65625 
Q 5.515625 15.328125 5.515625 27.984375 
Q 5.515625 40.671875 11.671875 48.328125 
Q 17.828125 56 27.875 56 
Q 33.9375 56 38.28125 53.609375 
Q 42.625 51.21875 45.40625 46.390625 
L 45.40625 54.6875 
L 54.390625 54.6875 
z
" id="DejaVuSans-103"/>
      <path d="M 9.8125 72.90625 
L 19.671875 72.90625 
L 19.671875 5.078125 
Q 19.671875 -8.109375 14.671875 -14.0625 
Q 9.671875 -20.015625 -1.421875 -20.015625 
L -5.171875 -20.015625 
L -5.171875 -11.71875 
L -2.09375 -11.71875 
Q 4.4375 -11.71875 7.125 -8.046875 
Q 9.8125 -4.390625 9.8125 5.078125 
z
" id="DejaVuSans-74"/>
     </defs>
     <g transform="translate(14.798438 168.314594)rotate(-90)scale(0.1 -0.1)">
      <use xlink:href="#DejaVuSans-69"/>
      <use x="63.183594" xlink:href="#DejaVuSans-110"/>
      <use x="126.5625" xlink:href="#DejaVuSans-101"/>
      <use x="188.085938" xlink:href="#DejaVuSans-114"/>
      <use x="229.183594" xlink:href="#DejaVuSans-103"/>
      <use x="292.660156" xlink:href="#DejaVuSans-121"/>
      <use x="351.839844" xlink:href="#DejaVuSans-32"/>
      <use x="383.626953" xlink:href="#DejaVuSans-40"/>
      <use x="422.640625" xlink:href="#DejaVuSans-74"/>
      <use x="452.132812" xlink:href="#DejaVuSans-41"/>
     </g>
    </g>
   </g>
   <g id="line2d_31">
    <defs>
     <path d="M 0 1 
C 0.265203 1 0.51958 0.894634 0.707107 0.707107 
C 0.894634 0.51958 1 0.265203 1 0 
C 1 -0.265203 0.894634 -0.51958 0.707107 -0.707107 
C 0.51958 -0.894634 0.265203 -1 0 -1 
C -0.265203 -1 -0.51958 -0.894634 -0.707107 -0.707107 
C -0.894634 -0.51958 -1 -0.265203 -1 0 
C -1 0.265203 -0.894634 0.51958 -0.707107 0.707107 
C -0.51958 0.894634 -0.265203 1 0 1 
z
" id="m27881f3014" style="stroke:#ff0000;stroke-opacity:0.7;"/>
    </defs>
    <g clip-path="url(#p4403aa7862)">
     <use style="fill:#ff0000;fill-opacity:0.7;stroke:#ff0000;stroke-opacity:0.7;" x="60.013977" xlink:href="#m27881f3014" y="22.796"/>
     <use style="fill:#ff0000;fill-opacity:0.7;stroke:#ff0000;stroke-opacity:0.7;" x="63.289813" xlink:href="#m27881f3014" y="35.585156"/>
     <use style="fill:#ff0000;fill-opacity:0.7;stroke:#ff0000;stroke-opacity:0.7;" x="65.525088" xlink:href="#m27881f3014" y="45.035854"/>
     <use style="fill:#ff0000;fill-opacity:0.7;stroke:#ff0000;stroke-opacity:0.7;" x="69.610248" xlink:href="#m27881f3014" y="55.407304"/>
     <use style="fill:#ff0000;fill-opacity:0.7;stroke:#ff0000;stroke-opacity:0.7;" x="70.920582" xlink:href="#m27881f3014" y="64.486722"/>
     <use style="fill:#ff0000;fill-opacity:0.7;stroke:#ff0000;stroke-opacity:0.7;" x="72.153837" xlink:href="#m27881f3014" y="72.677794"/>
     <use style="fill:#ff0000;fill-opacity:0.7;stroke:#ff0000;stroke-opacity:0.7;" x="77.009781" xlink:href="#m27881f3014" y="80.42613"/>
     <use style="fill:#ff0000;fill-opacity:0.7;stroke:#ff0000;stroke-opacity:0.7;" x="78.011802" xlink:href="#m27881f3014" y="88.334926"/>
     <use style="fill:#ff0000;fill-opacity:0.7;stroke:#ff0000;stroke-opacity:0.7;" x="79.707528" xlink:href="#m27881f3014" y="94.172557"/>
     <use style="fill:#ff0000;fill-opacity:0.7;stroke:#ff0000;stroke-opacity:0.7;" x="81.172019" xlink:href="#m27881f3014" y="99.013258"/>
     <use style="fill:#ff0000;fill-opacity:0.7;stroke:#ff0000;stroke-opacity:0.7;" x="86.760209" xlink:href="#m27881f3014" y="105.999433"/>
     <use style="fill:#ff0000;fill-opacity:0.7;stroke:#ff0000;stroke-opacity:0.7;" x="89.997505" xlink:href="#m27881f3014" y="111.927018"/>
     <use style="fill:#ff0000;fill-opacity:0.7;stroke:#ff0000;stroke-opacity:0.7;" x="88.610092" xlink:href="#m27881f3014" y="115.45916"/>
     <use style="fill:#ff0000;fill-opacity:0.7;stroke:#ff0000;stroke-opacity:0.7;" x="93.851429" xlink:href="#m27881f3014" y="118.385771"/>
     <use style="fill:#ff0000;fill-opacity:0.7;stroke:#ff0000;stroke-opacity:0.7;" x="95.701312" xlink:href="#m27881f3014" y="124.539898"/>
     <use style="fill:#ff0000;fill-opacity:0.7;stroke:#ff0000;stroke-opacity:0.7;" x="95.932548" xlink:href="#m27881f3014" y="126.94613"/>
     <use style="fill:#ff0000;fill-opacity:0.7;stroke:#ff0000;stroke-opacity:0.7;" x="97.936588" xlink:href="#m27881f3014" y="133.955628"/>
     <use style="fill:#ff0000;fill-opacity:0.7;stroke:#ff0000;stroke-opacity:0.7;" x="101.019727" xlink:href="#m27881f3014" y="133.708885"/>
     <use style="fill:#ff0000;fill-opacity:0.7;stroke:#ff0000;stroke-opacity:0.7;" x="106.183985" xlink:href="#m27881f3014" y="139.222253"/>
     <use style="fill:#ff0000;fill-opacity:0.7;stroke:#ff0000;stroke-opacity:0.7;" x="107.494319" xlink:href="#m27881f3014" y="141.15353"/>
     <use style="fill:#ff0000;fill-opacity:0.7;stroke:#ff0000;stroke-opacity:0.7;" x="108.110947" xlink:href="#m27881f3014" y="144.998092"/>
     <use style="fill:#ff0000;fill-opacity:0.7;stroke:#ff0000;stroke-opacity:0.7;" x="109.96083" xlink:href="#m27881f3014" y="149.938899"/>
     <use style="fill:#ff0000;fill-opacity:0.7;stroke:#ff0000;stroke-opacity:0.7;" x="114.354304" xlink:href="#m27881f3014" y="150.281135"/>
     <use style="fill:#ff0000;fill-opacity:0.7;stroke:#ff0000;stroke-opacity:0.7;" x="112.966891" xlink:href="#m27881f3014" y="151.609803"/>
     <use style="fill:#ff0000;fill-opacity:0.7;stroke:#ff0000;stroke-opacity:0.7;" x="117.283286" xlink:href="#m27881f3014" y="156.945695"/>
     <use style="fill:#ff0000;fill-opacity:0.7;stroke:#ff0000;stroke-opacity:0.7;" x="120.983053" xlink:href="#m27881f3014" y="158.363399"/>
     <use style="fill:#ff0000;fill-opacity:0.7;stroke:#ff0000;stroke-opacity:0.7;" x="120.59766" xlink:href="#m27881f3014" y="160.039575"/>
     <use style="fill:#ff0000;fill-opacity:0.7;stroke:#ff0000;stroke-opacity:0.7;" x="123.834956" xlink:href="#m27881f3014" y="163.438296"/>
     <use style="fill:#ff0000;fill-opacity:0.7;stroke:#ff0000;stroke-opacity:0.7;" x="127.920116" xlink:href="#m27881f3014" y="164.003292"/>
     <use style="fill:#ff0000;fill-opacity:0.7;stroke:#ff0000;stroke-opacity:0.7;" x="128.536743" xlink:href="#m27881f3014" y="166.789834"/>
     <use style="fill:#ff0000;fill-opacity:0.7;stroke:#ff0000;stroke-opacity:0.7;" x="135.011335" xlink:href="#m27881f3014" y="169.116869"/>
     <use style="fill:#ff0000;fill-opacity:0.7;stroke:#ff0000;stroke-opacity:0.7;" x="134.394708" xlink:href="#m27881f3014" y="171.513963"/>
     <use style="fill:#ff0000;fill-opacity:0.7;stroke:#ff0000;stroke-opacity:0.7;" x="135.242571" xlink:href="#m27881f3014" y="172.477377"/>
     <use style="fill:#ff0000;fill-opacity:0.7;stroke:#ff0000;stroke-opacity:0.7;" x="138.711102" xlink:href="#m27881f3014" y="174.53838"/>
     <use style="fill:#ff0000;fill-opacity:0.7;stroke:#ff0000;stroke-opacity:0.7;" x="144.569067" xlink:href="#m27881f3014" y="177.427688"/>
     <use style="fill:#ff0000;fill-opacity:0.7;stroke:#ff0000;stroke-opacity:0.7;" x="144.877381" xlink:href="#m27881f3014" y="178.776104"/>
     <use style="fill:#ff0000;fill-opacity:0.7;stroke:#ff0000;stroke-opacity:0.7;" x="145.879401" xlink:href="#m27881f3014" y="179.859812"/>
     <use style="fill:#ff0000;fill-opacity:0.7;stroke:#ff0000;stroke-opacity:0.7;" x="149.656246" xlink:href="#m27881f3014" y="181.787671"/>
     <use style="fill:#ff0000;fill-opacity:0.7;stroke:#ff0000;stroke-opacity:0.7;" x="151.50613" xlink:href="#m27881f3014" y="183.078763"/>
     <use style="fill:#ff0000;fill-opacity:0.7;stroke:#ff0000;stroke-opacity:0.7;" x="149.810403" xlink:href="#m27881f3014" y="184.349483"/>
     <use style="fill:#ff0000;fill-opacity:0.7;stroke:#ff0000;stroke-opacity:0.7;" x="155.976681" xlink:href="#m27881f3014" y="184.969469"/>
     <use style="fill:#ff0000;fill-opacity:0.7;stroke:#ff0000;stroke-opacity:0.7;" x="156.901623" xlink:href="#m27881f3014" y="185.657689"/>
     <use style="fill:#ff0000;fill-opacity:0.7;stroke:#ff0000;stroke-opacity:0.7;" x="159.59937" xlink:href="#m27881f3014" y="187.107234"/>
     <use style="fill:#ff0000;fill-opacity:0.7;stroke:#ff0000;stroke-opacity:0.7;" x="163.222058" xlink:href="#m27881f3014" y="187.479627"/>
     <use style="fill:#ff0000;fill-opacity:0.7;stroke:#ff0000;stroke-opacity:0.7;" x="166.613511" xlink:href="#m27881f3014" y="189.758141"/>
     <use style="fill:#ff0000;fill-opacity:0.7;stroke:#ff0000;stroke-opacity:0.7;" x="168.848787" xlink:href="#m27881f3014" y="189.89297"/>
     <use style="fill:#ff0000;fill-opacity:0.7;stroke:#ff0000;stroke-opacity:0.7;" x="167.307217" xlink:href="#m27881f3014" y="191.008979"/>
     <use style="fill:#ff0000;fill-opacity:0.7;stroke:#ff0000;stroke-opacity:0.7;" x="170.390356" xlink:href="#m27881f3014" y="190.754437"/>
     <use style="fill:#ff0000;fill-opacity:0.7;stroke:#ff0000;stroke-opacity:0.7;" x="176.710792" xlink:href="#m27881f3014" y="193.178676"/>
     <use style="fill:#ff0000;fill-opacity:0.7;stroke:#ff0000;stroke-opacity:0.7;" x="176.710792" xlink:href="#m27881f3014" y="192.651781"/>
     <use style="fill:#ff0000;fill-opacity:0.7;stroke:#ff0000;stroke-opacity:0.7;" x="177.712812" xlink:href="#m27881f3014" y="194.092066"/>
     <use style="fill:#ff0000;fill-opacity:0.7;stroke:#ff0000;stroke-opacity:0.7;" x="183.493698" xlink:href="#m27881f3014" y="195.634246"/>
     <use style="fill:#ff0000;fill-opacity:0.7;stroke:#ff0000;stroke-opacity:0.7;" x="185.266503" xlink:href="#m27881f3014" y="195.769782"/>
     <use style="fill:#ff0000;fill-opacity:0.7;stroke:#ff0000;stroke-opacity:0.7;" x="186.962229" xlink:href="#m27881f3014" y="196.089967"/>
     <use style="fill:#ff0000;fill-opacity:0.7;stroke:#ff0000;stroke-opacity:0.7;" x="188.503799" xlink:href="#m27881f3014" y="196.512472"/>
     <use style="fill:#ff0000;fill-opacity:0.7;stroke:#ff0000;stroke-opacity:0.7;" x="191.664016" xlink:href="#m27881f3014" y="198.01266"/>
     <use style="fill:#ff0000;fill-opacity:0.7;stroke:#ff0000;stroke-opacity:0.7;" x="193.745135" xlink:href="#m27881f3014" y="198.108447"/>
     <use style="fill:#ff0000;fill-opacity:0.7;stroke:#ff0000;stroke-opacity:0.7;" x="196.442882" xlink:href="#m27881f3014" y="198.954388"/>
     <use style="fill:#ff0000;fill-opacity:0.7;stroke:#ff0000;stroke-opacity:0.7;" x="200.605119" xlink:href="#m27881f3014" y="199.721226"/>
     <use style="fill:#ff0000;fill-opacity:0.7;stroke:#ff0000;stroke-opacity:0.7;" x="199.988492" xlink:href="#m27881f3014" y="198.755"/>
     <use style="fill:#ff0000;fill-opacity:0.7;stroke:#ff0000;stroke-opacity:0.7;" x="203.457023" xlink:href="#m27881f3014" y="199.753008"/>
     <use style="fill:#ff0000;fill-opacity:0.7;stroke:#ff0000;stroke-opacity:0.7;" x="203.61118" xlink:href="#m27881f3014" y="200.361199"/>
     <use style="fill:#ff0000;fill-opacity:0.7;stroke:#ff0000;stroke-opacity:0.7;" x="207.15679" xlink:href="#m27881f3014" y="200.573417"/>
     <use style="fill:#ff0000;fill-opacity:0.7;stroke:#ff0000;stroke-opacity:0.7;" x="197.05951" xlink:href="#m27881f3014" y="256.412067"/>
     <use style="fill:#ff0000;fill-opacity:0.7;stroke:#ff0000;stroke-opacity:0.7;" x="212.552283" xlink:href="#m27881f3014" y="259.420674"/>
     <use style="fill:#ff0000;fill-opacity:0.7;stroke:#ff0000;stroke-opacity:0.7;" x="214.864638" xlink:href="#m27881f3014" y="259.726286"/>
     <use style="fill:#ff0000;fill-opacity:0.7;stroke:#ff0000;stroke-opacity:0.7;" x="216.637443" xlink:href="#m27881f3014" y="260.040778"/>
     <use style="fill:#ff0000;fill-opacity:0.7;stroke:#ff0000;stroke-opacity:0.7;" x="219.412268" xlink:href="#m27881f3014" y="260.232048"/>
     <use style="fill:#ff0000;fill-opacity:0.7;stroke:#ff0000;stroke-opacity:0.7;" x="222.264172" xlink:href="#m27881f3014" y="260.49809"/>
     <use style="fill:#ff0000;fill-opacity:0.7;stroke:#ff0000;stroke-opacity:0.7;" x="223.497427" xlink:href="#m27881f3014" y="260.710452"/>
     <use style="fill:#ff0000;fill-opacity:0.7;stroke:#ff0000;stroke-opacity:0.7;" x="226.272252" xlink:href="#m27881f3014" y="260.553777"/>
     <use style="fill:#ff0000;fill-opacity:0.7;stroke:#ff0000;stroke-opacity:0.7;" x="229.817862" xlink:href="#m27881f3014" y="261.773411"/>
     <use style="fill:#ff0000;fill-opacity:0.7;stroke:#ff0000;stroke-opacity:0.7;" x="230.819882" xlink:href="#m27881f3014" y="261.722301"/>
     <use style="fill:#ff0000;fill-opacity:0.7;stroke:#ff0000;stroke-opacity:0.7;" x="233.594708" xlink:href="#m27881f3014" y="261.941288"/>
     <use style="fill:#ff0000;fill-opacity:0.7;stroke:#ff0000;stroke-opacity:0.7;" x="235.752905" xlink:href="#m27881f3014" y="262.568751"/>
     <use style="fill:#ff0000;fill-opacity:0.7;stroke:#ff0000;stroke-opacity:0.7;" x="237.834024" xlink:href="#m27881f3014" y="262.502358"/>
     <use style="fill:#ff0000;fill-opacity:0.7;stroke:#ff0000;stroke-opacity:0.7;" x="241.225477" xlink:href="#m27881f3014" y="262.044556"/>
     <use style="fill:#ff0000;fill-opacity:0.7;stroke:#ff0000;stroke-opacity:0.7;" x="242.921203" xlink:href="#m27881f3014" y="263.053001"/>
     <use style="fill:#ff0000;fill-opacity:0.7;stroke:#ff0000;stroke-opacity:0.7;" x="244.848165" xlink:href="#m27881f3014" y="262.466797"/>
     <use style="fill:#ff0000;fill-opacity:0.7;stroke:#ff0000;stroke-opacity:0.7;" x="246.775127" xlink:href="#m27881f3014" y="262.96567"/>
     <use style="fill:#ff0000;fill-opacity:0.7;stroke:#ff0000;stroke-opacity:0.7;" x="250.16658" xlink:href="#m27881f3014" y="263.270603"/>
     <use style="fill:#ff0000;fill-opacity:0.7;stroke:#ff0000;stroke-opacity:0.7;" x="252.324778" xlink:href="#m27881f3014" y="263.654358"/>
     <use style="fill:#ff0000;fill-opacity:0.7;stroke:#ff0000;stroke-opacity:0.7;" x="255.176681" xlink:href="#m27881f3014" y="263.640028"/>
     <use style="fill:#ff0000;fill-opacity:0.7;stroke:#ff0000;stroke-opacity:0.7;" x="256.872408" xlink:href="#m27881f3014" y="263.629796"/>
     <use style="fill:#ff0000;fill-opacity:0.7;stroke:#ff0000;stroke-opacity:0.7;" x="259.184762" xlink:href="#m27881f3014" y="263.992377"/>
     <use style="fill:#ff0000;fill-opacity:0.7;stroke:#ff0000;stroke-opacity:0.7;" x="261.111724" xlink:href="#m27881f3014" y="264.034077"/>
     <use style="fill:#ff0000;fill-opacity:0.7;stroke:#ff0000;stroke-opacity:0.7;" x="263.501157" xlink:href="#m27881f3014" y="264.230396"/>
     <use style="fill:#ff0000;fill-opacity:0.7;stroke:#ff0000;stroke-opacity:0.7;" x="265.813511" xlink:href="#m27881f3014" y="263.911812"/>
     <use style="fill:#ff0000;fill-opacity:0.7;stroke:#ff0000;stroke-opacity:0.7;" x="268.89665" xlink:href="#m27881f3014" y="263.536795"/>
     <use style="fill:#ff0000;fill-opacity:0.7;stroke:#ff0000;stroke-opacity:0.7;" x="270.900691" xlink:href="#m27881f3014" y="264.219526"/>
     <use style="fill:#ff0000;fill-opacity:0.7;stroke:#ff0000;stroke-opacity:0.7;" x="274.060908" xlink:href="#m27881f3014" y="264.325737"/>
     <use style="fill:#ff0000;fill-opacity:0.7;stroke:#ff0000;stroke-opacity:0.7;" x="275.602478" xlink:href="#m27881f3014" y="264.300876"/>
     <use style="fill:#ff0000;fill-opacity:0.7;stroke:#ff0000;stroke-opacity:0.7;" x="278.685617" xlink:href="#m27881f3014" y="264.581067"/>
     <use style="fill:#ff0000;fill-opacity:0.7;stroke:#ff0000;stroke-opacity:0.7;" x="280.766736" xlink:href="#m27881f3014" y="264.554329"/>
     <use style="fill:#ff0000;fill-opacity:0.7;stroke:#ff0000;stroke-opacity:0.7;" x="282.462462" xlink:href="#m27881f3014" y="264.669183"/>
     <use style="fill:#ff0000;fill-opacity:0.7;stroke:#ff0000;stroke-opacity:0.7;" x="284.774816" xlink:href="#m27881f3014" y="264.288129"/>
     <use style="fill:#ff0000;fill-opacity:0.7;stroke:#ff0000;stroke-opacity:0.7;" x="287.472563" xlink:href="#m27881f3014" y="264.274402"/>
     <use style="fill:#ff0000;fill-opacity:0.7;stroke:#ff0000;stroke-opacity:0.7;" x="290.478624" xlink:href="#m27881f3014" y="264.223122"/>
     <use style="fill:#ff0000;fill-opacity:0.7;stroke:#ff0000;stroke-opacity:0.7;" x="293.17637" xlink:href="#m27881f3014" y="264.614186"/>
     <use style="fill:#ff0000;fill-opacity:0.7;stroke:#ff0000;stroke-opacity:0.7;" x="296.953216" xlink:href="#m27881f3014" y="264.655387"/>
     <use style="fill:#ff0000;fill-opacity:0.7;stroke:#ff0000;stroke-opacity:0.7;" x="296.644902" xlink:href="#m27881f3014" y="264.492244"/>
     <use style="fill:#ff0000;fill-opacity:0.7;stroke:#ff0000;stroke-opacity:0.7;" x="299.959276" xlink:href="#m27881f3014" y="264.709272"/>
     <use style="fill:#ff0000;fill-opacity:0.7;stroke:#ff0000;stroke-opacity:0.7;" x="302.502866" xlink:href="#m27881f3014" y="264.347444"/>
     <use style="fill:#ff0000;fill-opacity:0.7;stroke:#ff0000;stroke-opacity:0.7;" x="304.583985" xlink:href="#m27881f3014" y="264.199064"/>
     <use style="fill:#ff0000;fill-opacity:0.7;stroke:#ff0000;stroke-opacity:0.7;" x="306.433868" xlink:href="#m27881f3014" y="264.147928"/>
     <use style="fill:#ff0000;fill-opacity:0.7;stroke:#ff0000;stroke-opacity:0.7;" x="308.437909" xlink:href="#m27881f3014" y="264.230856"/>
     <use style="fill:#ff0000;fill-opacity:0.7;stroke:#ff0000;stroke-opacity:0.7;" x="311.598126" xlink:href="#m27881f3014" y="264.261254"/>
     <use style="fill:#ff0000;fill-opacity:0.7;stroke:#ff0000;stroke-opacity:0.7;" x="312.214754" xlink:href="#m27881f3014" y="264.512175"/>
     <use style="fill:#ff0000;fill-opacity:0.7;stroke:#ff0000;stroke-opacity:0.7;" x="315.914521" xlink:href="#m27881f3014" y="264.338056"/>
     <use style="fill:#ff0000;fill-opacity:0.7;stroke:#ff0000;stroke-opacity:0.7;" x="319.151817" xlink:href="#m27881f3014" y="264.687485"/>
     <use style="fill:#ff0000;fill-opacity:0.7;stroke:#ff0000;stroke-opacity:0.7;" x="320.462151" xlink:href="#m27881f3014" y="264.716"/>
     <use style="fill:#ff0000;fill-opacity:0.7;stroke:#ff0000;stroke-opacity:0.7;" x="323.622369" xlink:href="#m27881f3014" y="264.513002"/>
     <use style="fill:#ff0000;fill-opacity:0.7;stroke:#ff0000;stroke-opacity:0.7;" x="325.703488" xlink:href="#m27881f3014" y="264.616569"/>
     <use style="fill:#ff0000;fill-opacity:0.7;stroke:#ff0000;stroke-opacity:0.7;" x="328.247078" xlink:href="#m27881f3014" y="264.517337"/>
     <use style="fill:#ff0000;fill-opacity:0.7;stroke:#ff0000;stroke-opacity:0.7;" x="329.711569" xlink:href="#m27881f3014" y="264.614922"/>
     <use style="fill:#ff0000;fill-opacity:0.7;stroke:#ff0000;stroke-opacity:0.7;" x="332.17808" xlink:href="#m27881f3014" y="264.705623"/>
     <use style="fill:#ff0000;fill-opacity:0.7;stroke:#ff0000;stroke-opacity:0.7;" x="334.644591" xlink:href="#m27881f3014" y="264.464357"/>
     <use style="fill:#ff0000;fill-opacity:0.7;stroke:#ff0000;stroke-opacity:0.7;" x="336.417396" xlink:href="#m27881f3014" y="264.51842"/>
     <use style="fill:#ff0000;fill-opacity:0.7;stroke:#ff0000;stroke-opacity:0.7;" x="339.885928" xlink:href="#m27881f3014" y="264.338864"/>
     <use style="fill:#ff0000;fill-opacity:0.7;stroke:#ff0000;stroke-opacity:0.7;" x="341.658733" xlink:href="#m27881f3014" y="264.339931"/>
     <use style="fill:#ff0000;fill-opacity:0.7;stroke:#ff0000;stroke-opacity:0.7;" x="343.354459" xlink:href="#m27881f3014" y="264.197473"/>
     <use style="fill:#ff0000;fill-opacity:0.7;stroke:#ff0000;stroke-opacity:0.7;" x="347.439618" xlink:href="#m27881f3014" y="264.340939"/>
     <use style="fill:#ff0000;fill-opacity:0.7;stroke:#ff0000;stroke-opacity:0.7;" x="349.135345" xlink:href="#m27881f3014" y="264.252766"/>
     <use style="fill:#ff0000;fill-opacity:0.7;stroke:#ff0000;stroke-opacity:0.7;" x="351.293542" xlink:href="#m27881f3014" y="263.976923"/>
     <use style="fill:#ff0000;fill-opacity:0.7;stroke:#ff0000;stroke-opacity:0.7;" x="353.91421" xlink:href="#m27881f3014" y="263.748995"/>
     <use style="fill:#ff0000;fill-opacity:0.7;stroke:#ff0000;stroke-opacity:0.7;" x="355.224544" xlink:href="#m27881f3014" y="263.828419"/>
     <use style="fill:#ff0000;fill-opacity:0.7;stroke:#ff0000;stroke-opacity:0.7;" x="358.153527" xlink:href="#m27881f3014" y="263.390858"/>
     <use style="fill:#ff0000;fill-opacity:0.7;stroke:#ff0000;stroke-opacity:0.7;" x="360.157567" xlink:href="#m27881f3014" y="263.532056"/>
     <use style="fill:#ff0000;fill-opacity:0.7;stroke:#ff0000;stroke-opacity:0.7;" x="363.471942" xlink:href="#m27881f3014" y="263.433545"/>
     <use style="fill:#ff0000;fill-opacity:0.7;stroke:#ff0000;stroke-opacity:0.7;" x="363.54902" xlink:href="#m27881f3014" y="263.307511"/>
     <use style="fill:#ff0000;fill-opacity:0.7;stroke:#ff0000;stroke-opacity:0.7;" x="368.327886" xlink:href="#m27881f3014" y="263.38616"/>
     <use style="fill:#ff0000;fill-opacity:0.7;stroke:#ff0000;stroke-opacity:0.7;" x="369.329906" xlink:href="#m27881f3014" y="263.210917"/>
     <use style="fill:#ff0000;fill-opacity:0.7;stroke:#ff0000;stroke-opacity:0.7;" x="371.411025" xlink:href="#m27881f3014" y="262.756456"/>
     <use style="fill:#ff0000;fill-opacity:0.7;stroke:#ff0000;stroke-opacity:0.7;" x="375.18787" xlink:href="#m27881f3014" y="262.454006"/>
     <use style="fill:#ff0000;fill-opacity:0.7;stroke:#ff0000;stroke-opacity:0.7;" x="376.806518" xlink:href="#m27881f3014" y="262.236132"/>
     <use style="fill:#ff0000;fill-opacity:0.7;stroke:#ff0000;stroke-opacity:0.7;" x="378.502245" xlink:href="#m27881f3014" y="262.936816"/>
     <use style="fill:#ff0000;fill-opacity:0.7;stroke:#ff0000;stroke-opacity:0.7;" x="380.583363" xlink:href="#m27881f3014" y="262.710423"/>
     <use style="fill:#ff0000;fill-opacity:0.7;stroke:#ff0000;stroke-opacity:0.7;" x="384.668523" xlink:href="#m27881f3014" y="262.437459"/>
    </g>
   </g>
   <g id="patch_3">
    <path d="M 43.78125 276.812 
L 43.78125 10.7 
" style="fill:none;stroke:#000000;stroke-linecap:square;stroke-linejoin:miter;stroke-width:0.8;"/>
   </g>
   <g id="patch_4">
    <path d="M 400.90125 276.812 
L 400.90125 10.7 
" style="fill:none;stroke:#000000;stroke-linecap:square;stroke-linejoin:miter;stroke-width:0.8;"/>
   </g>
   <g id="patch_5">
    <path d="M 43.78125 276.812 
L 400.90125 276.812 
" style="fill:none;stroke:#000000;stroke-linecap:square;stroke-linejoin:miter;stroke-width:0.8;"/>
   </g>
   <g id="patch_6">
    <path d="M 43.78125 10.7 
L 400.90125 10.7 
" style="fill:none;stroke:#000000;stroke-linecap:square;stroke-linejoin:miter;stroke-width:0.8;"/>
   </g>
   <g id="legend_1">
    <g id="patch_7">
     <path d="M 50.78125 33.378125 
L 111.204688 33.378125 
Q 113.204688 33.378125 113.204688 31.378125 
L 113.204688 17.7 
Q 113.204688 15.7 111.204688 15.7 
L 50.78125 15.7 
Q 48.78125 15.7 48.78125 17.7 
L 48.78125 31.378125 
Q 48.78125 33.378125 50.78125 33.378125 
z
" style="fill:#ffffff;opacity:0.8;stroke:#cccccc;stroke-linejoin:miter;"/>
    </g>
    <g id="line2d_32"/>
    <g id="line2d_33">
     <g>
      <use style="fill:#ff0000;fill-opacity:0.7;stroke:#ff0000;stroke-opacity:0.7;" x="62.78125" xlink:href="#m27881f3014" y="23.798438"/>
     </g>
    </g>
    <g id="text_19">
     <!-- V=1V -->
     <defs>
      <path d="M 28.609375 0 
L 0.78125 72.90625 
L 11.078125 72.90625 
L 34.1875 11.53125 
L 57.328125 72.90625 
L 67.578125 72.90625 
L 39.796875 0 
z
" id="DejaVuSans-86"/>
      <path d="M 10.59375 45.40625 
L 73.1875 45.40625 
L 73.1875 37.203125 
L 10.59375 37.203125 
z
M 10.59375 25.484375 
L 73.1875 25.484375 
L 73.1875 17.1875 
L 10.59375 17.1875 
z
" id="DejaVuSans-61"/>
     </defs>
     <g transform="translate(80.78125 27.298438)scale(0.1 -0.1)">
      <use xlink:href="#DejaVuSans-86"/>
      <use x="68.408203" xlink:href="#DejaVuSans-61"/>
      <use x="152.197266" xlink:href="#DejaVuSans-49"/>
      <use x="215.820312" xlink:href="#DejaVuSans-86"/>
     </g>
    </g>
   </g>
  </g>
 </g>
 <defs>
  <clipPath id="p4403aa7862">
   <rect height="266.112" width="357.12" x="43.78125" y="10.7"/>
  </clipPath>
 </defs>
</svg>
